<?xml version="1.0" encoding="utf-8"?>
<!-- Generator: Adobe Illustrator 16.0.0, SVG Export Plug-In . SVG Version: 6.00 Build 0)  -->
<!DOCTYPE svg PUBLIC "-//W3C//DTD SVG 1.1//EN" "http://www.w3.org/Graphics/SVG/1.1/DTD/svg11.dtd">
<svg version="1.1" xmlns="http://www.w3.org/2000/svg" xmlns:xlink="http://www.w3.org/1999/xlink" x="0px" y="0px" width="512px"
	 height="512px" viewBox="0 0 512 512" enable-background="new 0 0 512 512" xml:space="preserve">
<g id="Layer_1">
	<g>
		<path d="M453.522,178.791l-105.182-4.778c-0.68-0.028-1.406-0.06-2.096,0c-53.809,4.717-76.514,14.404-85.105,14.866
			l-51.537,2.146l-24.197-45.26c-0.08-0.146-0.172-0.284-0.256-0.429c1.602-1.162,3.205-2.325,4.842-3.516
			C325.852,43.115,334.821,33.993,333.29,31.887c-1.527-2.106-11.723,2.693-148.84,102.309c-2.25,1.634-4.459,3.238-6.637,4.824
			c-3.217-1.265-6.891-1.408-10.395-0.131c-6.262,2.281-10.021,8.379-9.625,14.71c-111.463,81.304-118.068,88.569-116.645,90.53
			c1.412,1.941,11.268-2.767,119.463-81.011l20.414,56.015c2.314,6.33,8.26,10.982,15.412,11.295l2.59,0.111l58.762,2.556
			l16.119,88.521l-23.115,64.058l-39.957,51.188c-6.986,8.997-5.998,22.061,2.598,29.815c9,8.127,22.889,7.416,31.016-1.588
			l46.707-51.743c1.281-1.437,2.428-3.153,3.25-5.009l0.711-1.597l30.537-68.792c0.982,1.304,2.084,2.544,3.32,3.692l47.578,44.158
			l-20.27,66.252c-3.268,10.793,2.191,22.564,12.857,26.827c11.266,4.499,24.047-0.986,28.547-12.252l32.031-80.186
			c3.369-8.471,1.729-18.514-5.021-25.486l-1.199-1.239l-48.641-50.24l-16.348-89.791l95.012-4.314
			c9.326-0.456,17.027-7.944,17.459-17.461C471.44,187.811,463.624,179.25,453.522,178.791z"/>
		<path d="M306.485,88.832c-23.209-7.761-48.311,4.767-56.064,27.965c-7.76,23.208,4.762,48.308,27.969,56.064
			c23.207,7.76,48.305-4.762,56.064-27.965C342.211,121.688,329.688,96.592,306.485,88.832z"/>
	</g>
</g>
<g id="Layer_2">
</g>
</svg>
