<?xml version="1.0" encoding="utf-8"?>
<!-- Generator: Adobe Illustrator 16.0.0, SVG Export Plug-In . SVG Version: 6.00 Build 0)  -->
<!DOCTYPE svg PUBLIC "-//W3C//DTD SVG 1.1//EN" "http://www.w3.org/Graphics/SVG/1.1/DTD/svg11.dtd">
<svg version="1.1" xmlns="http://www.w3.org/2000/svg" xmlns:xlink="http://www.w3.org/1999/xlink" x="0px" y="0px" width="512px"
	 height="512px" viewBox="0 0 512 512" enable-background="new 0 0 512 512" xml:space="preserve">
<g id="Layer_1">
	<g>
		<circle cx="138.01" cy="93.673" r="52.241"/>
		<path d="M449.736,95.334c-0.948-2.583-1.896-5.165-2.844-7.748c-0.575-1.567-1.15-3.133-1.726-4.7
			c-0.821-2.239-1.443-4.762-2.604-6.858c-1.62-2.925-5.24-4.265-8.376-3.114c-10.22,3.751-20.354,7.75-30.454,11.808
			c-20.621,8.287-40.968,17.154-61.098,26.566c-15.547,7.27-31.271,14.161-47.054,20.901c-4.78-5.654-12.53-8.406-20.169-6.405
			c0,0-88.572,28.042-111.862,28.964S88.4,134.482,83.861,181.455c-0.668,6.912-1.566,14.338-1.803,22.274
			c-0.843,28.325,3.597,67.576,25.185,109.826L63.032,439.871c-3.989,11.51,1.362,24.462,12.681,29.569
			c11.986,5.408,26.087,0.075,31.495-11.912l55.763-123.6l1.243-0.981l35.262,25.119l30.23,97.203
			c3.774,12.072,16.439,19.2,28.792,15.939c12.705-3.354,20.285-16.373,16.932-29.078l-28.358-107.425
			c-1.109-4.149-3.373-8.143-6.733-11.299l-1.84-1.729c0,0-46.731-42.792-48.073-43.471c-16.435-29.233-19.438-56.249-18.238-76.174
			l114.535-38.248c6.53-2.198,11.251-7.555,12.898-13.885c17.495-5.427,35.046-10.693,52.724-15.49
			c21.439-5.817,42.674-12.292,63.745-19.328c7.252-2.422,14.485-4.9,21.695-7.445c2.021-0.713,4.039-1.431,6.055-2.157
			c0.993-0.358,2.071-0.665,3-1.178C450.154,102.463,450.968,98.693,449.736,95.334z"/>
		<circle cx="400.319" cy="54.505" r="14.502"/>
	</g>
</g>
<g id="Layer_2">
</g>
</svg>
