<?xml version="1.0" encoding="utf-8"?>
<!-- Generator: Adobe Illustrator 16.0.0, SVG Export Plug-In . SVG Version: 6.00 Build 0)  -->
<!DOCTYPE svg PUBLIC "-//W3C//DTD SVG 1.1//EN" "http://www.w3.org/Graphics/SVG/1.1/DTD/svg11.dtd">
<svg version="1.1" xmlns="http://www.w3.org/2000/svg" xmlns:xlink="http://www.w3.org/1999/xlink" x="0px" y="0px" width="512px"
	 height="512px" viewBox="0 0 512 512" enable-background="new 0 0 512 512" xml:space="preserve">
<g id="Layer_1">
	<g>
		<path d="M368.195,261.357l-83.691-70.032c-28.801-23.419-67.539-45.488-96.266-12.841c-26.729,30.374-54.301,66.328-54.688,66.745
			c-12.314,13.262-12.877,31.017-1.346,43.382L63.24,379.973c-5.744,7.594-5.254,18.452,1.586,25.493
			c7.553,7.771,19.975,7.952,27.746,0.401l78.473-76.237l25.094,26.495l-44.465,64.081c-5.486,7.89-4.48,18.819,2.764,25.549
			c7.936,7.373,20.344,6.917,27.717-1.019l69.195-74.472c8.266-8.875,8.898-22.716,0.992-32.348l-1.771-2.156l-42.275-51.487
			l44.799-54.64l90.275,63.968c8.576,6.041,20.559,4.632,27.402-3.562C377.98,281.409,376.826,268.567,368.195,261.357z"/>
		<circle cx="283.997" cy="114.624" r="53.623"/>
		<path d="M422.099,183.162c-4.612-1.542-9.396-2.324-14.219-2.324c-19.306,0-36.391,12.308-42.514,30.626
			c-3.799,11.358-2.947,23.515,2.399,34.231c5.346,10.715,14.545,18.708,25.903,22.504c4.612,1.542,9.397,2.324,14.222,2.324
			c0.001,0,0,0,0.001,0c19.304,0,36.388-12.309,42.51-30.627C458.239,216.453,445.543,191.002,422.099,183.162z M425.026,254.403
			c-2.896,1.73-6.06,3.03-9.399,3.823c1.644-7.091,2.213-17.272-2.556-28.886c1.484-1.613,4.251-4.071,8.691-6.144
			C424.83,228.461,428.787,238.937,425.026,254.403z M404.727,232.708c1.388,3.371,2.229,6.583,2.677,9.577
			c-6.465-0.53-20.827-4.605-30.599-28.887c1.505-3.815,3.655-7.242,6.31-10.173C385.214,213.703,390.696,229.567,404.727,232.708z
			 M406.017,223.753c-3.335-0.998-5.951-3.373-7.998-6.378c2.531-3.365,12.663-14.542,34.969-13.76
			c1.83,2.089,3.39,4.391,4.647,6.848C419.35,211.351,409.811,219.47,406.017,223.753z M418.486,193.965
			c1.086,0.363,2.141,0.777,3.164,1.239c-14.296,2.036-23.138,8.592-27.806,13.319c-1.477-4.475-2.258-8.912-2.651-11.814
			c4.961-2.86,10.674-4.479,16.687-4.479C411.473,192.229,415.042,192.813,418.486,193.965z M377.958,240.61
			c-1.829-3.665-2.943-7.557-3.351-11.514c11.478,18.593,25.874,21.855,33.058,22.211c-0.284,3.078-0.911,5.703-1.571,7.752
			c-2.985-0.162-5.943-0.704-8.814-1.664C388.808,254.565,381.945,248.604,377.958,240.61z M439.599,236.287
			c-0.989,2.959-2.382,5.692-4.071,8.183c0.441-10.702-2.316-18.785-5.073-24.092c2.985-0.607,6.396-0.975,10.256-0.99
			C441.769,224.849,441.485,230.645,439.599,236.287z"/>
	</g>
</g>
<g id="Layer_2">
</g>
</svg>
