<?xml version="1.0" encoding="utf-8"?>
<!-- Generator: Adobe Illustrator 16.0.0, SVG Export Plug-In . SVG Version: 6.00 Build 0)  -->
<!DOCTYPE svg PUBLIC "-//W3C//DTD SVG 1.1//EN" "http://www.w3.org/Graphics/SVG/1.1/DTD/svg11.dtd">
<svg version="1.1" xmlns="http://www.w3.org/2000/svg" xmlns:xlink="http://www.w3.org/1999/xlink" x="0px" y="0px" width="512px"
	 height="512px" viewBox="0 0 512 512" enable-background="new 0 0 512 512" xml:space="preserve">
<g id="Layer_1">
	<g>
		<g>
			<path d="M461.984,345.956l-44.321-63.859c-5.719-8.217-16.277-12.271-26.396-9.256l-1.575,0.469l-47.796,14.238l40.885-135.209
				c3.241-11.048-2.402-23.029-13.32-27.334c-11.562-4.558-24.629,1.119-29.187,12.681l-48.562,123.183
				c-30.791-6.835-74.818-15.772-97.046-16.394c-36.151-1.011-77.735,55.655-70.238,80.563l29.053,65.74l0.998,2.258
				c1.437,3.245,3.974,6.024,7.402,7.722l57.09,28.254c6.608,3.279,14.795,1.28,19.086-4.979c4.699-6.854,2.951-16.222-3.905-20.919
				l-45.809-31.399l-13.825-44.465c0,0,109.692,39.354,137.203,28.422l77.627-28.983l36.531,46.069
				c7.319,9.187,20.659,11.297,30.448,4.502C466.535,370.175,469.066,356.161,461.984,345.956z"/>
		</g>
		<g>
			<circle cx="98.924" cy="237.372" r="52.919"/>
		</g>
		<path d="M280.759,81.43c-24.813,0-45,20.187-45,45c0,24.813,20.187,45,45,45c24.813,0,45-20.188,45-45
			C325.759,101.617,305.572,81.43,280.759,81.43z M312.42,140.193l-7.946-13.763l7.946-13.763h1.089
			c1.786,4.234,2.776,8.885,2.776,13.763c0,4.877-0.99,9.528-2.776,13.763H312.42z M293.393,93.234l-4.688,8.119h-15.893
			l-4.688-8.119c3.928-1.501,8.185-2.33,12.634-2.33S289.465,91.733,293.393,93.234z M296.651,126.43l-7.946,13.763h-15.893
			l-7.946-13.763l7.946-13.763h15.893L296.651,126.43z M248.008,112.667h1.089l7.946,13.763l-7.946,13.763h-1.089
			c-1.786-4.234-2.776-8.886-2.776-13.763C245.232,121.552,246.222,116.902,248.008,112.667z M268.125,159.626l4.688-8.119h15.893
			l4.688,8.119c-3.928,1.5-8.185,2.33-12.634,2.33S272.053,161.126,268.125,159.626z"/>
	</g>
</g>
<g id="Layer_2">
</g>
</svg>
