<?xml version="1.0" encoding="utf-8"?>
<!-- Generator: Adobe Illustrator 16.0.0, SVG Export Plug-In . SVG Version: 6.00 Build 0)  -->
<!DOCTYPE svg PUBLIC "-//W3C//DTD SVG 1.1//EN" "http://www.w3.org/Graphics/SVG/1.1/DTD/svg11.dtd">
<svg version="1.1" xmlns="http://www.w3.org/2000/svg" xmlns:xlink="http://www.w3.org/1999/xlink" x="0px" y="0px" width="512px"
	 height="512px" viewBox="0 0 512 512" enable-background="new 0 0 512 512" xml:space="preserve">
<g id="Layer_1">
	<g>
		<path d="M431.26,296.229l-4.119-67.266c-0.176-2.665-0.922-5.426-2.291-7.921l-0.717-1.305c0,0-41.531-75.565-41.828-76.098
			c-7.387-13.215-74.012-48.09-102.813-36.586l-126.209,66.801c-6.322,3.337-9.625,10.53-8.082,17.492
			c-3.641-3.028-7.885-5.452-12.641-7.042c-4.049-1.354-8.248-2.04-12.482-2.04c-16.949,0-31.947,10.805-37.322,26.887
			c-3.336,9.971-2.588,20.644,2.105,30.051c4.693,9.407,12.77,16.424,22.74,19.757c4.049,1.354,8.25,2.04,12.484,2.04
			c0.002,0,0.002,0,0.002,0c16.945,0,31.945-10.806,37.32-26.887c3.639-10.883,2.232-22.257-2.939-31.579
			c3.637,1.563,7.852,1.789,11.852,0.288l92.402-34.677c-23.955,39.875-31.379,82.929-21.705,125.953l-9.348,72.891l-35.18,78.639
			c-5.104,11.463-0.432,25.106,10.871,30.896c11.697,5.991,26.037,1.366,32.027-10.331l41.32-80.67
			c0.738-1.462,1.359-3.128,1.734-4.8l0.443-1.993l12.365-55.373l21.127,52.776L300.66,450.43
			c-1.922,12.348,6.084,24.275,18.455,26.962c12.844,2.79,25.516-5.361,28.305-18.204l17.65-81.263
			c0.822-3.846,0.705-8.05-0.58-12.064l-0.518-1.617l-29.113-90.878c-4.742-19.872-0.475-39.231,12.988-59.047
			c3.676-5.409,7.627-10.226,11.41-14.356l25.119,38.606l7.4,61.25c1.27,10.321,10.381,18.06,20.9,17.416
			C423.609,316.566,431.928,307.162,431.26,296.229z M147.924,230.942C143.914,242.94,132.727,251,120.088,251
			c-3.156,0-6.291-0.513-9.314-1.524c-7.439-2.486-13.463-7.72-16.963-14.737c-3.502-7.017-4.059-14.978-1.572-22.417
			c4.01-11.997,15.197-20.058,27.84-20.058c3.154,0,6.287,0.513,9.313,1.524c3.012,1.007,5.748,2.464,8.17,4.262
			c-0.622,1.013-0.987,2.201-0.987,3.478c0,3.682,2.985,6.667,6.667,6.667c0.936,0,1.824-0.194,2.633-0.542
			C149.611,214.556,150.604,222.927,147.924,230.942z"/>
		<path d="M363.277,119.003c23.709,2.772,45.174-14.197,47.943-37.906c2.773-23.706-14.195-45.174-37.902-47.945
			c-23.707-2.773-45.176,14.199-47.947,37.905C322.6,94.767,339.568,116.231,363.277,119.003z"/>
		<circle cx="125.989" cy="204.528" r="6.667"/>
		<circle cx="136.573" cy="217.861" r="6.667"/>
	</g>
</g>
<g id="Layer_2">
</g>
</svg>
