<?xml version="1.0" encoding="utf-8"?>
<!-- Generator: Adobe Illustrator 16.0.0, SVG Export Plug-In . SVG Version: 6.00 Build 0)  -->
<!DOCTYPE svg PUBLIC "-//W3C//DTD SVG 1.1//EN" "http://www.w3.org/Graphics/SVG/1.1/DTD/svg11.dtd">
<svg version="1.1" xmlns="http://www.w3.org/2000/svg" xmlns:xlink="http://www.w3.org/1999/xlink" x="0px" y="0px" width="512px"
	 height="512px" viewBox="0 0 512 512" enable-background="new 0 0 512 512" xml:space="preserve">
<g id="Layer_1">
	<g>
		<path d="M401.77,445.97l-45.611-61.285l-15.646-58.244c2.473-7.31,3.295-15.298,2.059-23.451l-14.746-97.36
			c-6.93,2.829-14.41,4.315-22.107,4.315c-0.002,0-0.002,0-0.002,0c-0.332,0-0.668-0.003-1-0.008
			c-15.623-0.262-30.209-6.591-41.07-17.824c-6.479-6.699-11.15-14.671-13.824-23.323c-18.564-3.141-33.424-4.575-34.488-4.652
			l-21.348-1.564l118.711-105.02c6.473-6.475,2.873-13.373-3.6-19.846c-6.457-6.463-13.359-10.05-19.822-3.576L180.566,156.976
			l-4.297,4.297l-13.619-0.998c-9.232-0.648-17.66,5.856-19.135,15.17c-0.855,5.408,0.799,10.631,4.09,14.501l-9.77,9.772
			l-1.107-0.712c-6.188-3.95-14.535-2.676-19.174,3.21c-4.205,5.334-4.037,12.7-0.037,17.825l-0.494,0.489l-2.145-2.145
			c-2.039-2.047-5.365-2.047-7.402,0c-2.037,2.033-2.037,5.357,0,7.39l12.33,12.332c2.047,2.047,5.363,2.047,7.4,0
			c2.053-2.035,2.053-5.356,0-7.402l-0.924-0.916l1.279-1.28l44.313,34.92c2.387,1.882,5.375,3.053,8.648,3.168l2.363,0.086
			l53.322,1.881l7.48,49.401c0.445,2.926,1.141,5.75,2.051,8.462l-21.168,41.68l-0.889,1.734c-1.027,2.045-1.715,4.303-1.98,6.709
			l-8.939,80.715c-1.215,11.216,6.449,21.683,17.723,23.685c11.768,2.091,23-5.755,25.09-17.52l13.252-74.613l17.818-28.754
			c2.111,0.276,4.252,0.424,6.422,0.424c0.951,0,1.906-0.037,2.865-0.092l14.791,42.239l0.584,1.688
			c0.791,2.232,1.994,4.358,3.619,6.269l53.002,62.315c7.332,8.581,20.211,10.178,29.4,3.34
			C406.918,469.111,408.904,455.556,401.77,445.97z M186.285,230.876l-37.178-23.911l10.686-10.682l44.775,7.093l24.229,12.078
			l0.879,9.969L186.285,230.876z"/>
		<path d="M257.209,150.162c-0.455,27.284,21.285,49.771,48.568,50.228c27.285,0.459,49.771-21.286,50.23-48.568
			c0.459-27.278-21.287-49.771-48.57-50.226C280.156,101.137,257.668,122.882,257.209,150.162z"/>
	</g>
</g>
<g id="Layer_2">
</g>
</svg>
