<?xml version="1.0" encoding="utf-8"?>
<!-- Generator: Adobe Illustrator 16.0.0, SVG Export Plug-In . SVG Version: 6.00 Build 0)  -->
<!DOCTYPE svg PUBLIC "-//W3C//DTD SVG 1.1//EN" "http://www.w3.org/Graphics/SVG/1.1/DTD/svg11.dtd">
<svg version="1.1" xmlns="http://www.w3.org/2000/svg" xmlns:xlink="http://www.w3.org/1999/xlink" x="0px" y="0px" width="512px"
	 height="512px" viewBox="0 0 512 512" enable-background="new 0 0 512 512" xml:space="preserve">
<g id="Layer_1">
	<g>
		<path d="M405.224,63.336c-6.251-8.998-18.611-11.223-27.608-4.973L260.51,139.732c-31.796,18.463-109.879,26.629-109.879,26.629
			l5.316-17.422c1.498-6.875-1.685-14.189-8.22-17.613c-7.84-4.107-17.525-1.082-21.633,6.758l-20.553,39.229
			c-1.624,3.123-2.488,6.787-2.255,10.557c0.684,11.066,10.209,19.484,21.276,18.801l3.62-0.225l78.091-4.824L239.799,319.6
			l-35.857,62.592l-79.09,39.301c-10.97,5.488-16.15,18.614-11.495,30.196c4.903,12.199,18.767,18.113,30.966,13.211l90.762-36.479
			c4.532-1.816,8.56-5.012,11.395-9.438l55.526-88.439l32.694,40.465l16.478,88.2c2.286,12.053,13.498,20.619,25.912,19.301
			c13.074-1.387,22.549-13.109,21.162-26.184l-10.318-97.272c-0.427-3.898-1.841-7.848-4.291-11.26l-37.437-52.166l-36.262-127.605
			l91.462-73.943C409.381,83.596,411.185,71.914,405.224,63.336z"/>
		<path d="M233.438,142.031c30.011,0.504,54.745-23.414,55.248-53.422c0.506-30.004-23.413-54.742-53.423-55.244
			c-30.007-0.504-54.741,23.414-55.244,53.42C179.515,116.797,203.428,141.529,233.438,142.031z"/>
		<circle cx="177.344" cy="139.872" r="19.755"/>
	</g>
</g>
<g id="Layer_2">
</g>
</svg>
