<?xml version="1.0" encoding="utf-8"?>
<!-- Generator: Adobe Illustrator 16.0.0, SVG Export Plug-In . SVG Version: 6.00 Build 0)  -->
<!DOCTYPE svg PUBLIC "-//W3C//DTD SVG 1.1//EN" "http://www.w3.org/Graphics/SVG/1.1/DTD/svg11.dtd">
<svg version="1.1" xmlns="http://www.w3.org/2000/svg" xmlns:xlink="http://www.w3.org/1999/xlink" x="0px" y="0px" width="512px"
	 height="512px" viewBox="0 0 512 512" enable-background="new 0 0 512 512" xml:space="preserve">
<g id="Layer_1">
	<g>
		<path d="M296.445,132.225c27.105,5.278,53.353-12.411,58.632-39.516c5.277-27.1-12.411-53.354-39.513-58.63
			c-27.104-5.279-53.355,12.413-58.633,39.514C251.654,100.699,269.341,126.946,296.445,132.225z"/>
		<path d="M355.388,426.763c3.869-4.641,5.987-10.746,5.44-17.242l-7.729-91.734c-0.438-5.208-2.555-10.33-6.383-14.461l-1.5-1.619
			l-19.986-21.57l19.689-93.787l111.129-4.487c10.187-0.44,18.59-8.624,19.021-18.999c0.455-10.947-8.051-20.19-18.998-20.646
			c0,0-123.046-5.104-128.38-4.755c-12.756,0.835-61.395,0.999-73.794,7.132l-132.767,61.159
			c-7.106,3.505-10.647,11.841-7.968,19.512c2.898,8.297,11.974,12.673,20.271,9.774l95.899-33.502c0,0-15.6,68.214-15.797,75.396
			l-3.965,53.057l-44.066,69.367c-5.282,8.369-4.773,19.064,0.887,26.826c-77.113,4.287-130.88,13.936-130.88,25.15
			c0,15.199,98.715,27.52,220.488,27.52s220.488-12.32,220.488-27.52C476.488,440.599,427.229,431.3,355.388,426.763z
			 M206.087,424.522l53.202-69.762c2.22-2.934,3.833-6.521,4.438-10.41l0.349-2.244l5.466-35.154l30.465,28.203l13.625,80.344
			c0.597,3.457,1.932,6.639,3.82,9.399c-19.507-0.705-40.123-1.085-61.451-1.085C238.833,423.813,222.125,424.06,206.087,424.522z"
			/>
	</g>
</g>
<g id="Layer_2">
</g>
</svg>
