<?xml version="1.0" encoding="utf-8"?>
<!-- Generator: Adobe Illustrator 16.0.0, SVG Export Plug-In . SVG Version: 6.00 Build 0)  -->
<!DOCTYPE svg PUBLIC "-//W3C//DTD SVG 1.1//EN" "http://www.w3.org/Graphics/SVG/1.1/DTD/svg11.dtd">
<svg version="1.1" xmlns="http://www.w3.org/2000/svg" xmlns:xlink="http://www.w3.org/1999/xlink" x="0px" y="0px" width="512px"
	 height="512px" viewBox="0 0 512 512" enable-background="new 0 0 512 512" xml:space="preserve">
<g id="Layer_1">
	<g>
		<path d="M280.127,131.962c0.405,0.064,0.812,0.037,1.197-0.066c9.645,5.621,18.839,7.478,27.426,5.492
			c15.336-3.549,22.473-18.074,22.771-18.691c0.842-1.754,0.573-3.842-0.678-5.324c-1.261-1.491-3.268-2.099-5.137-1.563
			c-7.705,2.212-22.841-3.959-32.661-9.356c0.263-0.278,0.522-0.554,0.793-0.824c10.405-10.271,26.294-13.01,39.533-6.819
			c0.801,0.373,1.728,0.364,2.521-0.029c0.791-0.393,1.362-1.125,1.552-1.984c3.641-16.785-1.374-34.087-13.413-46.283
			c-19.583-19.839-51.656-20.051-71.497-0.464c-19.841,19.584-20.05,51.658-0.467,71.5
			C259.705,125.288,269.404,130.269,280.127,131.962z M287.291,110.554c5.629,3.168,18.205,9.623,29.738,11.218
			c-2.604,2.529-6.112,4.975-10.506,5.991c-6.742,1.56-14.388-0.459-22.775-5.979C284.29,117.856,285.489,114.062,287.291,110.554z"
			/>
		<g>
			<path d="M74.503,396.589l-1.284-0.085c-3.358-0.22-4.421-0.356-4.993-0.836c-1.366-1.144-3.249-4.796-5.596-10.856l-16.75-43.257
				c-1.061-2.745-3.751-4.587-6.693-4.587c-0.888,0-1.759,0.163-2.59,0.484c-1.789,0.692-3.2,2.039-3.976,3.794
				c-0.774,1.753-0.819,3.703-0.128,5.49l16.751,43.26c6.617,17.091,11.323,20.064,23.029,20.832l1.242,0.083
				c0.167,0.012,0.333,0.018,0.498,0.018c0.001,0,0,0,0.001,0c3.751,0,6.895-2.933,7.158-6.676
				C81.45,400.305,78.463,396.868,74.503,396.589z"/>
			<path d="M303.479,461.623c-1.342-1.283-3.103-1.99-4.959-1.99c-1.95,0-3.842,0.809-5.197,2.226l-0.889,0.935
				c-2.313,2.445-3.097,3.176-3.828,3.311c-0.219,0.04-0.488,0.059-0.802,0.059c-2.088,0-5.729-0.879-11.128-2.688l-43.983-14.731
				c-0.739-0.248-1.508-0.374-2.284-0.374c-3.088,0-5.822,1.968-6.804,4.899c-0.609,1.817-0.474,3.764,0.382,5.48
				s2.327,2.996,4.145,3.604l43.986,14.734c7.144,2.393,11.844,3.414,15.716,3.414c0,0,0.001,0,0.002,0
				c7.031,0,10.965-3.552,15.019-7.834l0.859-0.905C306.439,468.903,306.334,464.354,303.479,461.623z"/>
		</g>
		<path d="M432.315,434.699h-46.134L165.548,233.103l6.211-47.5l23.052-11.404l-13.463,58.186l130.938,119.639l-25.983-94.21
			l21.337-73.548l30.679,21.246l20.566,56.207c3.518,9.521,13.813,15.033,23.803,12.338c10.58-2.856,16.842-13.749,13.986-24.328
			l-17.738-65.722c-1.043-3.877-3.274-7.474-6.634-10.194l-1.422-1.15l-44.552-36.072c-4.033,3.463-9.273,6.631-15.837,8.15
			c-2.619,0.605-5.321,0.912-8.034,0.912c-7.082,0-14.452-2.078-21.932-6.179c-0.255-0.018-0.51-0.045-0.761-0.085
			c-11.885-1.877-22.645-7.404-31.111-15.981c-5.178-5.246-9.094-11.27-11.778-17.687c-8.377-0.741-15.437-0.279-20.076,1.889
			l-73.939,46.583l-2.07,1.303c-5.065,3.211-8.414,8.881-8.375,15.321l0.413,68.107c0.039,7.839,5.864,14.644,13.855,15.689
			c2.604,0.341,5.139,0.02,7.45-0.814l17.032,15.592l-17.621,46.755l-77.789,17.404c-12.021,2.43-20.453,13.738-18.991,26.135
			c1.54,13.057,13.374,22.393,26.431,20.854l89.256-10.529c8.704-1.049,16.675-6.568,20.401-15.197l0.677-1.566l19.617-45.425
			l38.613,35.346l6.683,20.387l-11.152,62.221c-2.086,11.871,5.084,23.744,16.931,27.111c12.652,3.597,25.824-3.745,29.421-16.397
			l12.401-43.631l67.025,61.356l2.063,2.123c0.848,0.873,2.013,1.365,3.229,1.365h53.958c2.485,0,4.5-2.014,4.5-4.5v-14
			C436.815,436.715,434.801,434.699,432.315,434.699z"/>
		<path d="M477.116,410.928h-37.423c-1.589,0-2.878,1.29-2.878,2.879v15.676c0,1.592,1.289,2.879,2.878,2.879h37.423
			c1.59,0,2.878-1.287,2.878-2.879v-15.676C479.994,412.217,478.706,410.928,477.116,410.928z"/>
	</g>
</g>
<g id="Layer_2">
</g>
</svg>
