<?xml version="1.0" encoding="utf-8"?>
<!-- Generator: Adobe Illustrator 16.0.0, SVG Export Plug-In . SVG Version: 6.00 Build 0)  -->
<!DOCTYPE svg PUBLIC "-//W3C//DTD SVG 1.1//EN" "http://www.w3.org/Graphics/SVG/1.1/DTD/svg11.dtd">
<svg version="1.1" xmlns="http://www.w3.org/2000/svg" xmlns:xlink="http://www.w3.org/1999/xlink" x="0px" y="0px" width="512px"
	 height="512px" viewBox="0 0 512 512" enable-background="new 0 0 512 512" xml:space="preserve">
<g id="Layer_1">
	<g>
		<path d="M436.239,243.863l-45.023-4.479l-11.783-64.871c-0.1-0.533-0.197-1.139-0.363-1.662
			c-11.408-36.064-58.195-79.535-95.382-70.555l-91.503,21.707c-1.327,0.32-2.623,0.869-3.834,1.65l-68.549,44.33
			c-6.167,3.98-8.774,11.934-5.813,18.924c3.313,7.826,12.344,11.484,20.17,8.17l70.907-30.023l51.627-10.223l-51.42,57.455
			c-23.982,27.771-45.367,88.455-45.367,88.455l-83.957,19.34c-0.191,0.063-0.37,0.146-0.558,0.213
			c-1.005-0.418-2.148-0.514-3.264-0.156c-1.085,0.346-1.958,1.049-2.531,1.932c-1.681-0.656-3.588-0.764-5.439-0.172
			c-4.275,1.371-6.63,5.947-5.261,10.223c1.37,4.275,5.945,6.631,10.222,5.26c1.15-0.367,2.156-0.977,2.993-1.74l3.332,10.398
			c-1.126-0.137-2.298-0.047-3.448,0.322c-4.275,1.371-6.631,5.947-5.261,10.223s5.945,6.629,10.223,5.26
			c1.149-0.369,2.156-0.977,2.993-1.74l3.332,10.398c-1.126-0.137-2.297-0.047-3.448,0.322c-4.275,1.371-6.63,5.945-5.261,10.221
			c1.37,4.275,5.946,6.631,10.222,5.262c1.852-0.594,3.342-1.791,4.326-3.303c0.982,0.387,2.1,0.449,3.184,0.104
			c1.117-0.357,1.99-1.102,2.564-2.025c0.192-0.055,0.386-0.092,0.577-0.152c8.307-2.662,12.355-17.785,10.232-26.127l77.415-7.207
			c14.206-1.42,47.566-55.188,47.566-55.188l30.604,67.77l-5.052,83.412c-0.165,1.127,0.084,2.217,0.627,3.123
			c-1.328,1.223-2.262,2.889-2.542,4.813c-0.645,4.443,2.434,8.566,6.877,9.213c4.441,0.645,8.566-2.434,9.211-6.877
			c0.174-1.195,0.07-2.365-0.251-3.453l10.806,1.568c-0.616,0.953-1.048,2.045-1.222,3.24c-0.646,4.445,2.434,8.568,6.876,9.213
			c4.441,0.645,8.566-2.434,9.211-6.875c0.173-1.197,0.07-2.367-0.25-3.455l10.806,1.568c-0.617,0.951-1.049,2.045-1.223,3.24
			c-0.646,4.443,2.433,8.566,6.875,9.213c4.444,0.645,8.566-2.434,9.213-6.875c0.279-1.926-0.143-3.789-1.068-5.338
			c0.779-0.713,1.326-1.689,1.49-2.816c0.168-1.158-0.116-2.27-0.694-3.191c0.035-0.197,0.087-0.387,0.116-0.586
			c1.303-8.969-14.365-16.35-23.334-17.652l-0.533-0.078l15.129-75.688c0.637-3.409-0.182-6.203-1.303-9.209l-0.596-1.6
			l-28.777-77.201l57.233-59.199l13.491,52.803l0.368,1.459c2.185,8.531,9.796,14.953,19.04,15.23l61.977,1.873
			c9.949,0.275,18.631-7.186,19.631-17.242C454.444,254.287,446.763,244.91,436.239,243.863z"/>
		<path d="M385.534,141.469c27.526,0.463,50.213-21.475,50.674-48.998c0.462-27.52-21.475-50.209-49-50.67
			c-27.521-0.463-50.208,21.475-50.67,48.996C336.077,118.324,358.01,141.008,385.534,141.469z"/>
	</g>
</g>
<g id="Layer_2">
</g>
</svg>
