<?xml version="1.0" encoding="utf-8"?>
<!-- Generator: Adobe Illustrator 16.0.0, SVG Export Plug-In . SVG Version: 6.00 Build 0)  -->
<!DOCTYPE svg PUBLIC "-//W3C//DTD SVG 1.1//EN" "http://www.w3.org/Graphics/SVG/1.1/DTD/svg11.dtd">
<svg version="1.1" xmlns="http://www.w3.org/2000/svg" xmlns:xlink="http://www.w3.org/1999/xlink" x="0px" y="0px" width="512px"
	 height="512px" viewBox="0 0 512 512" enable-background="new 0 0 512 512" xml:space="preserve">
<g id="Layer_1">
	<g>
		<path d="M236.236,125.03c23.428,2.74,44.639-14.029,47.381-37.457c2.738-23.426-14.033-44.64-37.461-47.379
			c-23.426-2.742-44.639,14.029-47.375,37.456C196.037,101.079,212.809,122.289,236.236,125.03z"/>
		<path d="M434.18,428.362c-4.914,0.609-18.564,2.691-27.885,4.145c-8.564,1.336-10.586-0.693-12.729-3.854
			c-0.934-1.377-85.559-128.145-112.738-170.191c5.018-7.146,3.463-17.043-1.529-24.547c0,0-61.658-106.487-79.602-124.508
			c-42.424-42.609-98.941,36.789-124.564,112.984c-6.113,18.18-6.602,42.332,6.545,56.297l62.555,66.437L127.697,446.47
			c-1.787,10.884,4.809,21.628,15.668,24.76c11.713,3.377,23.943-3.38,27.32-15.092l32.906-114.112
			c2.098-7.454,0.846-15.904-4.189-22.553l-35.648-47.377c1.189-25.373,16.785-55.283,32.541-79.172l51.014,61.854
			c5.969,7.881,14.744,13.027,23.393,10.723l124.477,182.06c3.031,4.204,31.832,6.612,40.33,6.897
			C444.006,454.744,441.922,427.401,434.18,428.362z"/>
	</g>
</g>
<g id="Layer_2">
</g>
</svg>
