<?xml version="1.0" encoding="utf-8"?>
<!-- Generator: Adobe Illustrator 16.0.0, SVG Export Plug-In . SVG Version: 6.00 Build 0)  -->
<!DOCTYPE svg PUBLIC "-//W3C//DTD SVG 1.1//EN" "http://www.w3.org/Graphics/SVG/1.1/DTD/svg11.dtd">
<svg version="1.1" xmlns="http://www.w3.org/2000/svg" xmlns:xlink="http://www.w3.org/1999/xlink" x="0px" y="0px" width="512px"
	 height="512px" viewBox="0 0 512 512" enable-background="new 0 0 512 512" xml:space="preserve">
<g id="Layer_1">
	<g>
		<path d="M404.478,310.727c-6.129,0-12.093,0.731-17.813,2.1l-3.18-8.551c18.2-4.437,40.588-7.015,68.269,10.265
			c4.879,3.042,11.297,1.559,14.338-3.317c3.046-4.878,1.638-11.423-3.314-14.345c-29.31-17.29-60.271-22.74-77.559-24.455
			c1.217-2.3,1.915-4.918,1.915-7.701V251.53c0-9.107-16.828-16.49-25.935-16.49h-3.413l-4.525-12.117l-20.11-2.874
			c-0.486-1.17-1.104-2.305-1.891-3.369l-52.995-71.592c0,0-12.282-16.081-28.413-22.891c-16.369-7.607-40.863-4.792-54.154,15.348
			c-20.251,30.686-44.88,71.931-50.675,81.005c-5.961,9.334-4.198,21.566,4.858,27.94l34.878,23.944l-149.481-0.019
			c-0.002,0-0.006,0-0.01,0c-1.502,0-2.892,0.788-3.664,2.074c-0.77,1.292-0.806,2.896-0.094,4.218l12.75,23.622
			c0.604,1.119,1.679,1.911,2.928,2.159l56.701,11.242c-31.886,9.232-55.27,38.693-55.27,73.519c0,42.192,34.327,76.52,76.522,76.52
			s76.519-34.327,76.519-76.52c0-0.416-0.006-0.833-0.014-1.248h106.057c0.148,0.017,0.294,0.021,0.439,0.021
			c1.812,0,3.468-1.162,4.046-2.934c15.991-48.641,43.01-65.604,52.304-70.159l2.778,7.476
			c-23.433,13.095-39.31,38.146-39.31,66.844c0,42.192,34.322,76.52,76.517,76.52S481,429.442,481,387.25
			C481,345.055,446.672,310.727,404.478,310.727z M125.142,442.952c-30.715,0-55.707-24.986-55.707-55.702
			c0-30.717,24.992-55.703,55.707-55.703c22.015,0,41.082,12.836,50.119,31.42l-48.835,17.925
			c-5.396,1.981-8.166,7.963-6.185,13.357c1.548,4.213,5.53,6.824,9.774,6.824c1.191,0,2.4-0.204,3.583-0.64l47.078-17.279
			c0.101,1.353,0.165,2.715,0.165,4.096C180.842,417.965,155.856,442.952,125.142,442.952z M309.726,270.753
			c-24.206,0.48-38.88,12.278-46.931,22.073l-41.006-36.197l37.645-74.35l47.053,54.262c4.908,5.63,13.108,7.063,19.6,3.526
			l11.973,1.712l10.646,28.956L309.726,270.753z M404.478,442.952c-30.715,0-55.7-24.986-55.7-55.702
			c0-19.744,10.334-37.109,25.863-47.003l20.078,54.04c1.563,4.193,5.535,6.786,9.761,6.786c1.206,0,2.43-0.209,3.626-0.654
			c5.387-2.002,8.135-7.992,6.129-13.382l-20.243-54.487c3.401-0.649,6.902-1.003,10.486-1.003
			c30.715,0,55.706,24.986,55.706,55.703C460.184,417.965,435.192,442.952,404.478,442.952z"/>
		<path d="M271.102,121.877c20.268,2.371,38.619-12.137,40.99-32.404c2.37-20.266-12.141-38.618-32.406-40.988
			c-20.267-2.372-38.619,12.137-40.986,32.404C236.325,101.158,250.835,119.505,271.102,121.877z"/>
	</g>
</g>
<g id="Layer_2">
</g>
</svg>
