<?xml version="1.0" encoding="utf-8"?>
<!-- Generator: Adobe Illustrator 16.0.0, SVG Export Plug-In . SVG Version: 6.00 Build 0)  -->
<!DOCTYPE svg PUBLIC "-//W3C//DTD SVG 1.1//EN" "http://www.w3.org/Graphics/SVG/1.1/DTD/svg11.dtd">
<svg version="1.1" xmlns="http://www.w3.org/2000/svg" xmlns:xlink="http://www.w3.org/1999/xlink" x="0px" y="0px" width="512px"
	 height="512px" viewBox="0 0 512 512" enable-background="new 0 0 512 512" xml:space="preserve">
<g id="Layer_1">
	<g>
		<path d="M143.646,276.29c0,11.92,4.756,22.725,12.465,30.639l6.307,149.953c0.58,12.902,10.949,23.543,24.096,24.096
			c13.893,0.584,25.629-10.203,26.213-24.096l6.305-149.953c7.711-7.914,12.467-18.719,12.467-30.639v-95.724l-87.852-6.372V276.29z
			"/>
		<circle cx="211.551" cy="73.842" r="42.838"/>
		<path d="M225.199,121.034c-24.75-0.75-41.916-8.584-57.975-6.006l-56.408,10.106c-8.734,1.566-15.676,8.834-16.445,18.095
			c-0.922,11.051,7.289,20.754,18.338,21.675l123.01,10.247c0,0,13.4,0.732,16.084-12.771c3.24-16.292-12.332-18.008-12.332-18.008
			l-28.992-4.663l9.73-4.4l19.215,3.09c5.303,0.879,9.035,3.277,11.619,5.863l8.443-22.614L225.199,121.034z"/>
		<path d="M371.896,147.722c-0.159-2.714-0.367-5.376-0.624-7.96c-0.547-5.506-1.32-10.892-2.289-16.156l-87.617-1.567
			l-9.591,25.683H371.896z"/>
	</g>
	<path d="M473.852,154.71l-28.401-16.255c-1.647-0.943-3.674-0.938-5.316,0.015c-1.645,0.952-2.654,2.708-2.654,4.609v10.643
		h-30.427c-0.247-8.702-1.109-17.386-2.606-25.859c-5.088-28.85-16.506-57.178-36.508-78.986
		c-9.762-10.744-21.783-19.933-35.313-25.375c-6.311-2.539-12.979-4.373-19.758-5.043c-5.93-0.586-11.659-0.321-17.543,0.505
		c-2.502,0.356-2.375,3.836-0.037,4.339c1.988,0.426,3.969,0.841,5.926,1.368l-48.191,129.051H235.5v11.223h17.522l48.475,129.804
		c-2.084,0.572-4.189,1.079-6.314,1.549c-1.357,0.299-1.854,2.055-0.736,2.948c0.757,0.606,2.16,0.543,3.076,0.675
		c3.252,0.466,6.542,0.679,9.831,0.579c29.155-0.896,53.85-19.806,70.293-42.733c16.978-23.672,25.759-52.276,28.61-81.034
		c0.388-3.902,0.644-7.838,0.773-11.787h30.449v10.643c0,1.9,1.01,3.657,2.654,4.61c0.826,0.478,1.747,0.717,2.669,0.717
		c0.916,0,1.829-0.234,2.647-0.703l28.401-16.255c1.661-0.948,2.683-2.712,2.683-4.623S475.513,155.658,473.852,154.71z
		 M309.42,27.37c2.85,1.104,5.633,2.368,8.333,3.831c11.008,5.968,20.667,14.666,28.219,24.635
		c18.146,23.961,27.431,53.665,30.379,83.333c0.48,4.831,0.777,9.688,0.922,14.554H262.236L309.42,27.37z M376.152,182.237
		c-3.234,29.261-12.483,59.26-31.06,82.552c-8.892,11.154-20.08,20.774-33.283,26.42c-0.698,0.298-1.398,0.582-2.102,0.855
		l-47.472-127.12h115.066C377.161,170.727,376.787,176.503,376.152,182.237z"/>
</g>
<g id="Layer_2">
</g>
</svg>
