<?xml version="1.0" encoding="utf-8"?>
<!-- Generator: Adobe Illustrator 16.0.0, SVG Export Plug-In . SVG Version: 6.00 Build 0)  -->
<!DOCTYPE svg PUBLIC "-//W3C//DTD SVG 1.1//EN" "http://www.w3.org/Graphics/SVG/1.1/DTD/svg11.dtd">
<svg version="1.1" xmlns="http://www.w3.org/2000/svg" xmlns:xlink="http://www.w3.org/1999/xlink" x="0px" y="0px" width="512px"
	 height="512px" viewBox="0 0 512 512" enable-background="new 0 0 512 512" xml:space="preserve">
<g id="Layer_1">
	<path d="M125.692,499.546"/>
	<g>
		<path d="M265.487,160.738c-11.913-5.555-26.073-0.4-31.628,11.514l-26.957,57.814c0,0-86.877,33.707-113.135,47.029
			c-22.236,11.281-14.324,49.027-14.324,49.027l16.873,113.318h111.213l-20.684-138.91l52.411-27.035
			c5-2.588,9.11-6.941,11.301-12.604l27.07-69.998C282.07,179.328,276.889,166.054,265.487,160.738z"/>
		<circle cx="97.913" cy="196.669" r="52.241"/>
		<circle cx="321.401" cy="124.8" r="52.242"/>
		<path d="M461.329,190.367H344.997c-2.761,0-5,2.238-5,5v22.947c0,2.762,2.239,5,5,5h9.39l8.22,75.201
			c0.3,2.746,2.771,4.711,5.513,4.428l9.227-1.008c1.318-0.145,2.525-0.807,3.355-1.84c0.831-1.035,1.216-2.355,1.072-3.674
			l-0.715-6.534l22.104-18.765l22.104,18.764l-0.715,6.534c-0.144,1.318,0.241,2.639,1.072,3.674c0.83,1.033,2.037,1.695,3.355,1.84
			l9.227,1.008c0.185,0.02,0.368,0.029,0.55,0.029c2.518,0,4.684-1.896,4.964-4.457l8.219-75.201h9.39c2.762,0,5-2.238,5-5v-22.947
			C466.329,192.605,464.091,190.367,461.329,190.367z M378.885,269.993l-2.347-21.471l13.82,11.731L378.885,269.993z
			 M427.441,269.993l-11.473-9.739l13.82-11.731L427.441,269.993z M432.408,224.558l-29.245,24.826l-29.244-24.826l-0.136-1.244
			h58.761L432.408,224.558z"/>
	</g>
</g>
<g id="Layer_2">
</g>
</svg>
