<?xml version="1.0" encoding="utf-8"?>
<!-- Generator: Adobe Illustrator 16.0.0, SVG Export Plug-In . SVG Version: 6.00 Build 0)  -->
<!DOCTYPE svg PUBLIC "-//W3C//DTD SVG 1.1//EN" "http://www.w3.org/Graphics/SVG/1.1/DTD/svg11.dtd">
<svg version="1.1" xmlns="http://www.w3.org/2000/svg" xmlns:xlink="http://www.w3.org/1999/xlink" x="0px" y="0px" width="512px"
	 height="512px" viewBox="0 0 512 512" enable-background="new 0 0 512 512" xml:space="preserve">
<g id="Layer_1">
	<g>
		<path d="M319.539,189.777c17.725,0.348,32.371-13.76,32.715-31.484c0.342-17.717-13.75-32.365-31.48-32.707
			c-17.724-0.35-32.369,13.746-32.715,31.469C287.718,174.789,301.807,189.437,319.539,189.777z"/>
		<path d="M325.578,382.32c57.664-19.365,49.256-56.572,9.716-35.863c-6.497,3.4-13.087,6.48-19.731,9.287
			c-0.27-11.088-0.543-22.182-0.818-33.275c-0.09-3.641-1.099-31.674,0.15-39.461c0.599-3.729,1.004-7.855,2.674-11.275
			c2.068-4.229,6.692-11.6,8.18-16.07c2.951-8.854,5.074-17.98,6.746-27.152c0.67-3.691,1.266-7.402,1.784-11.121
			c0.501-3.602,1.134-7.252,0.639-10.887c-0.54-3.932-2.11-7.631-4.175-10.992c-0.093-0.154-0.195-0.324-0.309-0.504
			c-9.214,2.641-19.278,1.752-27.87-2.492c-7.466-3.691-13.647-9.805-17.433-17.211c-2.089-4.086-3.442-8.537-3.977-13.09
			c-0.057-0.51-0.109-1.035-0.145-1.559c-0.021-0.256-0.039-0.523-0.056-0.783c-0.455-0.184-0.913-0.361-1.37-0.543
			c-1.557-0.621-3.12-1.234-4.677-1.855c-1.284-0.508-7.474-2.936-11.745-4.137c-5.35-1.504-10.695-3.004-16.137-4.178
			c-5.484-1.188-10.99-2.254-16.523-3.195c-2.311-0.395-4.625-0.754-6.936-1.119c-1.684-0.25-3.352-0.328-5.041-0.012
			c-2.381,0.441-4.582,1.553-6.382,3.121c-7.639-50.775-14.235-83.639-14.364-84.057c-0.888-2.928-3.816-4.723-6.836-4.205
			c-3.014,0.525-5.161,3.221-5,6.281c4.785,89.768-41.732,213.078-42.073,214.352c-0.342,1.285-0.252,2.635,0.255,3.869
			l40.992,99.135c-23.372,1.564-43.428,1.824-57.563,2.879C86.782,389.25,236.796,412.14,325.578,382.32z M270.809,364.73
			c0.071-1.008,0.148-2.018,0.22-3.027c0.766-10.771,1.534-21.535,2.3-32.307c0.375-5.256,0.749-10.508,1.123-15.758
			c0.111-1.551,0.217-3.102,0.328-4.658c0.043-0.592,0-1.158,0.276-1.697c1.034-1.91,2.063-3.826,3.091-5.744
			c-0.548,2.75-1.322,5.533-0.992,8.35c0.079,0.693,0.166,1.4,0.249,2.104c0.497,4.23,0.997,8.459,1.495,12.699
			c1.355,11.52,2.711,23.041,4.07,34.568c0.303,2.566,0.602,5.135,0.906,7.703c0.003,0.021,0.009,0.049,0.012,0.074
			c-4.939,1.463-9.873,2.797-14.796,4.021C270.085,369.093,270.65,366.943,270.809,364.73z M218.521,171.056
			c4.768,1.131,9.521,2.309,14.246,3.613c6.161,1.703,12.358,3.395,18.272,5.82c11.142,4.564,17.171,8.086,17.171,8.086
			s-0.258,1.125-0.367,1.699c-0.203,1.02-0.352,2.059-0.462,3.109c-0.225,2.117-0.264,4.264-0.12,6.385
			c-4.519-0.174-11.332-1.316-30.672-6.176c-6.427-1.609-12.824-3.32-19.23-5.021c-0.383-5.471-0.938-10.977-1.711-16.51
			c-0.102-0.703-0.198-1.4-0.298-2.104C216.354,170.425,217.41,170.798,218.521,171.056z M215.587,279.783
			c0.306-21.033,2.368-43.459,2.501-66.654c8.225,3.553,16.451,7.115,24.684,10.668c2.699,1.174,5.35,2.234,8.201,3.012
			c4.641,1.281,6.992,1.777,11.756,2.438c-1.394,5.49-24.842,59.896-24.799,72.559c-0.004,0.73,0.015,1.455,0.028,2.176
			c0.061,4.143,0.12,8.271,0.179,12.402c0.17,11.855,0.341,23.711,0.512,35.563c0.048,3.645,0.103,7.287,0.157,10.934
			c0.013,1.242,0.047,2.48,0.265,3.719c0.686,3.781,2.771,7.234,5.754,9.652c-14.581,2.646-28.783,4.43-42.201,5.688
			C210.672,351.871,215.037,317.566,215.587,279.783z"/>
		<path d="M334.736,402.062c-26.211-1.115-52.018,0.826-77.697,6.211c-26.543,5.564-52.51,9.283-79.612,10.818
			c-12.045,0.035-25.836,0.84-38.515,0.434c-14.964-0.48-29.745-2.457-44.617-3.977c-24.734-2.529-48.866-1.422-73.295,3.059
			c25.535,5.414,50.396,11.16,75.313,19.025c26.576,8.391,53.309,13.27,81.182,14.459c26.144,1.121,51.844-0.82,77.467-6.164
			c26.338-5.502,52.354-9.764,79.313-10.77c26.658-0.992,53.929,0.609,81.023,3.301c25.486,2.602,50.518,2.066,75.703-2.859
			c-25.533-5.445-50.379-11.24-75.305-19.078C389.195,408.193,362.516,403.251,334.736,402.062z"/>
	</g>
</g>
<g id="Layer_2">
</g>
</svg>
