<?xml version="1.0" encoding="utf-8"?>
<!-- Generator: Adobe Illustrator 16.0.0, SVG Export Plug-In . SVG Version: 6.00 Build 0)  -->
<!DOCTYPE svg PUBLIC "-//W3C//DTD SVG 1.1//EN" "http://www.w3.org/Graphics/SVG/1.1/DTD/svg11.dtd">
<svg version="1.1" xmlns="http://www.w3.org/2000/svg" xmlns:xlink="http://www.w3.org/1999/xlink" x="0px" y="0px" width="512px"
	 height="512px" viewBox="0 0 512 512" enable-background="new 0 0 512 512" xml:space="preserve">
<g id="Layer_1">
	<g>
		<path d="M177.494,412.965c26.143,1.121,51.844-0.82,77.467-6.164c26.338-5.502,52.354-9.764,79.313-10.77
			c26.658-0.992,53.928,0.609,81.023,3.301c25.486,2.602,50.518,2.066,75.703-2.859c-25.533-5.445-50.379-11.24-75.305-19.078
			c-26.5-8.328-53.18-13.27-80.959-14.459c-8.416-0.359-16.789-0.396-25.131-0.111l16.076-68.855l114.336-4.242
			c10.246-0.408,18.688-8.645,19.088-19.064c0.418-10.947-8.117-20.162-19.064-20.58c0,0-149.008,9.68-175.107-4.693
			c-23-12.668-44.652-50.453-46.084-60.5c-1.43-10.049-1.777-81.641-1.777-81.641c0.051-7.998-5.922-14.926-14.051-15.881
			c-8.725-1.025-16.629,5.215-17.654,13.941l-10.596,90.127c-0.469,4.016,0.42,8.234,2.826,11.871l1.197,1.809l40.414,61.074
			l-26.297,112.627c-5.131,0.453-10.283,0.854-15.486,1.148c-12.045,0.035-25.836,0.84-38.514,0.434
			c-14.965-0.48-29.746-2.457-44.617-3.977C69.561,373.893,45.428,375,21,379.48c25.535,5.414,50.396,11.16,75.313,19.025
			C122.889,406.896,149.621,411.775,177.494,412.965z"/>
		<path d="M334.736,417.908c-26.211-1.115-52.018,0.826-77.697,6.211c-26.543,5.564-52.51,9.283-79.613,10.818
			c-12.045,0.035-25.836,0.84-38.514,0.434c-14.965-0.48-29.746-2.457-44.617-3.977c-24.734-2.529-48.867-1.422-73.295,3.059
			c25.535,5.414,50.396,11.16,75.313,19.025c26.576,8.391,53.309,13.27,81.182,14.459c26.143,1.121,51.844-0.82,77.467-6.164
			c26.338-5.502,52.354-9.764,79.313-10.77c26.658-0.992,53.928,0.609,81.023,3.301c25.486,2.602,50.518,2.066,75.703-2.859
			c-25.533-5.445-50.379-11.24-75.305-19.078C389.195,424.039,362.516,419.098,334.736,417.908z"/>
		<path d="M250.719,182.193c-8.205,24.535,5.033,51.07,29.568,59.273c24.533,8.203,51.068-5.035,59.27-29.568
			c8.203-24.535-5.035-51.07-29.568-59.273S258.918,157.664,250.719,182.193z"/>
		<path d="M266.588,130.757c23.988,0,43.5-19.513,43.5-43.5c0-23.987-19.512-43.5-43.5-43.5c-23.986,0-43.5,19.513-43.5,43.5
			C223.088,111.244,242.602,130.757,266.588,130.757z M266.588,122.498c-4.348,0-8.514-0.798-12.365-2.246
			c0.205-1.102,0.42-2.212,0.666-3.354c6.828-6.466,16.57-6.464,23.4,0c0.246,1.142,0.461,2.252,0.666,3.354
			C275.104,121.7,270.938,122.498,266.588,122.498z M266.588,52.015c4.35,0,8.514,0.798,12.367,2.246
			c-0.205,1.1-0.42,2.209-0.666,3.349c-6.83,6.466-16.572,6.463-23.4,0c-0.246-1.14-0.461-2.25-0.666-3.349
			C258.074,52.813,262.24,52.015,266.588,52.015z M246.672,75.55c14.385-3.088,25.449-3.088,39.834,0
			c6.465,6.832,6.463,16.575,0,23.404c-14.385,3.091-25.449,3.092-39.834,0C240.205,92.125,240.207,82.383,246.672,75.55z"/>
	</g>
</g>
<g id="Layer_2">
</g>
</svg>
