<?xml version="1.0" encoding="utf-8"?>
<!-- Generator: Adobe Illustrator 16.0.0, SVG Export Plug-In . SVG Version: 6.00 Build 0)  -->
<!DOCTYPE svg PUBLIC "-//W3C//DTD SVG 1.1//EN" "http://www.w3.org/Graphics/SVG/1.1/DTD/svg11.dtd">
<svg version="1.1" xmlns="http://www.w3.org/2000/svg" xmlns:xlink="http://www.w3.org/1999/xlink" x="0px" y="0px" width="512px"
	 height="512px" viewBox="0 0 512 512" enable-background="new 0 0 512 512" xml:space="preserve">
<g id="Layer_1">
	<g>
		<path d="M379.768,246.631c-47.551,0-86.234,38.684-86.234,86.23c0,47.549,38.684,86.232,86.234,86.232
			c47.549,0,86.232-38.684,86.232-86.232C466,285.315,427.316,246.631,379.768,246.631z M379.768,393.305
			c-33.328,0-60.443-27.113-60.443-60.443c0-33.328,27.115-60.443,60.443-60.443c33.326,0,60.441,27.115,60.441,60.443
			C440.209,366.192,413.094,393.305,379.768,393.305z"/>
		<path d="M132.234,246.631c-47.551,0-86.234,38.684-86.234,86.23c0,47.549,38.684,86.232,86.234,86.232
			c47.547,0,86.23-38.684,86.23-86.232C218.465,285.315,179.781,246.631,132.234,246.631z M132.234,393.305
			c-33.33,0-60.443-27.113-60.443-60.443c0-33.328,27.113-60.443,60.443-60.443c33.326,0,60.441,27.115,60.441,60.443
			C192.676,366.192,165.561,393.305,132.234,393.305z"/>
		<path d="M264.662,241.481L240.65,222.85l47.371-24.236l39.959,33.33c2.691,2.246,6.109,3.676,9.881,3.873l38.078,2.002
			c9.045,0.484,17.219-5.875,18.779-15.02c1.682-9.846-4.941-16.221-14.787-17.902l-38.951-5.816c0,0-28.393-39.164-34.818-45.875
			c-19.182-20.041-30.678-31.303-52.74-20.404l-67.326,33.264c-19.373,9.748-32.051,35.586-21.15,57.646
			c5.363,10.854,13.783,16.334,26.082,24.316l38.975,23.773l4.633,74.486c0.66,10.307,9.264,18.482,19.723,18.416
			c10.842-0.068,19.576-8.916,19.506-19.762l-0.559-86.715C273.223,251.858,270.227,245.491,264.662,241.481z"/>
		<path d="M322.707,163.723c4.279,2.879,9.125,4.873,14.184,5.861l0.053,0.01c12.533,2.432,25.715-1.604,34.754-10.619
			c9.168-9.15,13.195-22.682,10.521-35.357c-2.602-12.348-11.33-22.918-22.986-27.77c-11.928-4.959-25.836-3.584-36.547,3.637
			c-10.713,7.219-17.205,19.594-17.086,32.512C305.721,144.62,312.24,156.678,322.707,163.723z"/>
	</g>
</g>
<g id="Layer_2">
</g>
</svg>
