<?xml version="1.0" encoding="utf-8"?>
<!-- Generator: Adobe Illustrator 16.0.0, SVG Export Plug-In . SVG Version: 6.00 Build 0)  -->
<!DOCTYPE svg PUBLIC "-//W3C//DTD SVG 1.1//EN" "http://www.w3.org/Graphics/SVG/1.1/DTD/svg11.dtd">
<svg version="1.1" xmlns="http://www.w3.org/2000/svg" xmlns:xlink="http://www.w3.org/1999/xlink" x="0px" y="0px" width="512px"
	 height="512px" viewBox="0 0 512 512" enable-background="new 0 0 512 512" xml:space="preserve">
<g id="Layer_1">
	<g>
		<path d="M319.396,104.925c2.444-20.915-12.53-39.854-33.444-42.301c-14.152-1.656-27.389,4.668-35.234,15.406l68.363,29.021
			C319.203,106.349,319.312,105.641,319.396,104.925z"/>
		<path d="M374.199,171.167c-1.732-7.391-8.881-32.185-13.09-34.102L183.174,61.533l0.072-3.808
			c0.16-8.232-5.879-15.456-14.232-16.577c-6.582-0.884-12.762,2.271-16.08,7.548l-3.006-1.276l-4.393,10.097
			c1.371,0.542,2.867,1.138,4.477,1.779l-12.129,90.36c-1.338,10.236,5.232,20.131,15.496,22.584l47.324,11.307
			c-6.604,33.123-9.047,67.621-5.695,90.534l-12.256,175.776c-0.195,10.334,7.34,19.436,17.832,20.933
			c11.359,1.619,21.877-6.273,23.496-17.63l14.523-122.505l26.713,122.817c2.611,10.033,12.371,16.76,22.896,15.324
			c11.363-1.548,19.322-12.016,17.77-23.381l-22.098-182.799l12.248-67.512c0,0,5.703-32.938-23.629-48.374
			c-17.986-9.47-30.969-15.14-30.969-15.14l-8.289-38.391c3.424,1.406,6.863,2.818,10.291,4.229
			c-1.656,20.369,13.096,38.543,33.555,40.938c13.191,1.543,25.576-3.861,33.557-13.299c19.822,8.182,33.229,13.727,33.625,13.895
			c3.141,1.322,5.271,2.738,5.598,10.469c0.359,8.414,0.926,20.73,1.248,25.137C351.633,181.517,375.938,178.557,374.199,171.167z
			 M199.803,133.697l-17.936-1.931l1.1-59.142c4.002,1.631,8.174,3.332,12.461,5.084
			C195.299,78.824,199.803,133.697,199.803,133.697z"/>
		<path d="M227.557,64.978c-1.805-8.39-9.604-14.336-18.377-13.596c-4.734,0.4-8.855,2.669-11.711,6.018l31.318,13.295
			L227.557,64.978z"/>
	</g>
</g>
<g id="Layer_2">
</g>
</svg>
