<?xml version="1.0" encoding="utf-8"?>
<!-- Generator: Adobe Illustrator 16.0.0, SVG Export Plug-In . SVG Version: 6.00 Build 0)  -->
<!DOCTYPE svg PUBLIC "-//W3C//DTD SVG 1.1//EN" "http://www.w3.org/Graphics/SVG/1.1/DTD/svg11.dtd">
<svg version="1.1" xmlns="http://www.w3.org/2000/svg" xmlns:xlink="http://www.w3.org/1999/xlink" x="0px" y="0px" width="512px"
	 height="512px" viewBox="0 0 512 512" enable-background="new 0 0 512 512" xml:space="preserve">
<g id="Layer_1">
	<g>
		<path d="M409.836,228.679l-86.9-19.558c0.11-0.936,0.177-1.866,0.227-2.801l74.034-83.998c6.599-7.521,6.371-19.021-0.788-26.218
			c-7.474-7.515-19.629-7.55-27.141-0.077l-70.28,69.904l-38.58-19.253l20.391-18.95l0.749-0.696
			c3.412-3.2,5.452-7.817,5.217-12.854l-2.714-57.938c-0.411-8.379-7.289-15.142-15.79-15.24
			c-8.83-0.099-16.071,6.978-16.171,15.805l-0.561,49.378c0,0-18.991,11.434-35.351,31.368
			c-22.477,27.379-30.559,43.986-34.318,58.108c-3.759,14.12-22.296,83.764-22.296,83.764c-0.649,2.461-0.678,4.958-0.19,7.321
			c-5.737,3.419-9.587,9.683-9.587,16.833v6.742h-27.982c-19.12,0-34.618,15.498-34.618,34.611c0,19.12,15.498,34.616,34.618,34.616
			h52.448l-34.922,78.461c-2.073,4.659,0.022,10.116,4.681,12.189c1.22,0.543,2.494,0.802,3.747,0.802
			c3.538,0,6.911-2.044,8.441-5.482l38.266-85.97h106.837l38.266,85.97c1.53,3.438,4.903,5.482,8.441,5.482
			c1.252,0,2.526-0.259,3.747-0.802c4.658-2.074,6.755-7.531,4.681-12.189l-34.921-78.461h50.063
			c19.119,0,34.614-15.496,34.614-34.616c0-19.113-15.495-34.611-34.614-34.611h-27.982v-6.742c0-10.802-8.788-19.585-19.584-19.585
			c-10.802,0-19.588,8.783-19.588,19.585v6.742H188.955v-6.742c0-3.296-0.823-6.403-2.266-9.132
			c1.534-1.639,2.758-3.617,3.508-5.889l23.369-70.66l48.43,24.172c5.834,2.908,12.019,4.331,18.13,4.438l122.429,19.832
			c9.917,1.585,19.552-4.788,21.786-14.727C426.666,241.274,420.176,231.005,409.836,228.679z M156.208,303.578
			c0-4.507,2.279-8.494,5.745-10.866c1.908,2.724,4.656,4.886,8.042,6.005c3.882,1.284,7.898,0.983,11.376-0.526
			c0.74,1.646,1.164,3.465,1.164,5.387v6.742h-26.327V303.578z M310.852,303.578c0-7.258,5.899-13.164,13.163-13.164
			c7.257,0,13.163,5.906,13.163,13.164v6.742h-26.326V303.578z"/>
		<path d="M142.329,171.093c4.254,2.865,9.074,4.845,14.103,5.826l0.053,0.011c12.46,2.42,25.57-1.592,34.558-10.558
			c9.117-9.101,13.118-22.553,10.463-35.158c-2.588-12.278-11.27-22.789-22.86-27.611c-11.859-4.933-25.687-3.565-36.339,3.612
			c-10.653,7.178-17.107,19.482-16.989,32.331C125.439,152.099,131.925,164.09,142.329,171.093z"/>
	</g>
</g>
<g id="Layer_2">
</g>
</svg>
