<?xml version="1.0" encoding="utf-8"?>
<!-- Generator: Adobe Illustrator 16.0.0, SVG Export Plug-In . SVG Version: 6.00 Build 0)  -->
<!DOCTYPE svg PUBLIC "-//W3C//DTD SVG 1.1//EN" "http://www.w3.org/Graphics/SVG/1.1/DTD/svg11.dtd">
<svg version="1.1" xmlns="http://www.w3.org/2000/svg" xmlns:xlink="http://www.w3.org/1999/xlink" x="0px" y="0px" width="512px"
	 height="512px" viewBox="0 0 512 512" enable-background="new 0 0 512 512" xml:space="preserve">
<g id="Layer_1">
	<g>
		<path d="M379.494,317.117h-27.67v-6.667c0-10.681-8.69-19.366-19.365-19.366c-10.681,0-19.369,8.685-19.369,19.366v6.667H199.02
			v-6.667c0-4.342-1.454-8.341-3.875-11.574c1.732-2.268,2.909-5.004,3.264-8.043c0,0,1.166-9.972,2.914-24.928
			c0.436-3.741,0.907-7.793,1.406-12.08c0.431-4.297,0.885-8.828,1.355-13.517c0.1-0.994,0.2-1.999,0.301-3.006l131.334,3.028
			c7.199,0.146,13.468-5.266,14.196-12.554c0.767-7.663-4.825-14.497-12.488-15.263l-108.771-10.874l8.749-1.425l92.246-3.486
			c7.201-0.292,13.131-6.083,13.408-13.408c0.291-7.695-5.712-14.17-13.408-14.46l-93.938-3.55c-0.152-0.005-0.31-0.003-0.465,0.008
			l-1.558,0.11l-23.673,1.668c0.215-4.109,0.418-8.007,0.607-11.613c0.196-3.795,0.287-7.313,0.413-10.413
			c0.058-1.552,0.11-3.005,0.16-4.348c0.031-1.386,0.059-2.658,0.084-3.807c0.029-1.49,0.054-2.748,0.074-3.799
			c0.866-10.378-2.739-21.048-10.785-28.881c-14.283-13.903-37.132-13.597-51.037,0.687
			c-11.609,11.926-28.439,49.833-24.176,100.779c1.577,18.84,17.355,33.084,35.926,33.084c1.009,0,2.027-0.042,3.051-0.127
			c1.659-0.139,3.278-0.397,4.859-0.749c-0.26,4.48-0.511,8.816-0.75,12.931c-0.313,4.236-0.611,8.241-0.884,11.938
			c-1.102,14.794-1.836,24.656-1.836,24.656l-0.023,0.309c-0.206,2.822,0.328,5.537,1.43,7.962
			c-4.181,3.554-6.844,8.841-6.844,14.746v6.667h-27.775c-18.906,0-34.231,15.325-34.231,34.224
			c0,18.907,15.325,34.229,34.231,34.229h51.862l-34.531,77.584c-2.05,4.606,0.022,10.002,4.628,12.053
			c1.206,0.537,2.465,0.793,3.704,0.793c3.499,0,6.834-2.021,8.347-5.421l37.839-85.009h105.643l37.839,85.009
			c1.513,3.4,4.847,5.421,8.347,5.421c1.238,0,2.498-0.256,3.704-0.793c4.606-2.05,6.68-7.446,4.628-12.053l-34.53-77.584h49.504
			c18.904,0,34.226-15.323,34.226-34.229C413.72,332.441,398.398,317.117,379.494,317.117z M192.67,317.117h-26.032v-6.667
			c0-3.78,1.628-7.179,4.21-9.56c2.479,2.333,5.691,3.93,9.332,4.356c3.688,0.431,7.224-0.412,10.198-2.155
			c1.442,2.095,2.291,4.629,2.291,7.359V317.117z M345.475,317.117h-26.032v-6.667c0-7.177,5.833-13.017,13.016-13.017
			c7.176,0,13.016,5.84,13.016,13.017V317.117z"/>
		<path d="M207.004,105.629c4.207,2.833,8.973,4.791,13.945,5.761l0.052,0.011c12.321,2.394,25.284-1.574,34.172-10.439
			c9.015-9,12.971-22.301,10.347-34.765c-2.559-12.141-11.144-22.534-22.604-27.302c-11.727-4.877-25.4-3.526-35.933,3.572
			c-10.534,7.098-16.916,19.265-16.799,31.97C190.304,86.848,196.718,98.704,207.004,105.629z"/>
	</g>
</g>
<g id="Layer_2">
</g>
</svg>
