<?xml version="1.0" encoding="utf-8"?>
<!-- Generator: Adobe Illustrator 16.0.0, SVG Export Plug-In . SVG Version: 6.00 Build 0)  -->
<!DOCTYPE svg PUBLIC "-//W3C//DTD SVG 1.1//EN" "http://www.w3.org/Graphics/SVG/1.1/DTD/svg11.dtd">
<svg version="1.1" xmlns="http://www.w3.org/2000/svg" xmlns:xlink="http://www.w3.org/1999/xlink" x="0px" y="0px" width="512px"
	 height="512px" viewBox="0 0 512 512" enable-background="new 0 0 512 512" xml:space="preserve">
<g id="Layer_1">
	<g>
		<path d="M423.558,47.463c-9.528-8.938-24.497-8.46-33.434,1.067l-92.284,98.368l-15.316-1.144l-91.21-97.224
			c-8.481-9-22.663-10.038-32.326-2.043c-10.067,8.327-11.477,23.237-3.15,33.303l81.882,98.991l-0.082,99.104l-135.979-6.381
			c-10.386-0.481-19.505,7.244-20.558,17.714c-1.088,10.831,6.808,20.492,17.638,21.581c0,0,83.549,8.568,125.157,12.646
			c33.44,2.801,61.896,19.874,64.433,66.579c0.767,27.93,1.791,61.737,1.791,61.737c0.299,10.377,8.665,18.888,19.17,19.171
			c10.881,0.293,19.939-8.29,20.233-19.171c0,0,4.678-141.397,4.678-149.829c0,0,3.847-111.741,3.06-115.345L425.6,79.79
			C433.461,70.243,432.705,56.044,423.558,47.463z"/>
		<path d="M249.511,335.962c-13.034-5.421-28.23-3.92-39.938,3.97c-11.708,7.888-18.8,21.41-18.67,35.532
			c0.132,13.796,7.263,26.972,18.695,34.669c4.676,3.149,9.973,5.326,15.499,6.405l0.059,0.012
			c13.693,2.66,28.102-1.752,37.979-11.604c10.02-10.002,14.417-24.787,11.501-38.64
			C271.791,352.812,262.248,341.261,249.511,335.962z"/>
	</g>
</g>
<g id="Layer_2">
</g>
</svg>
