<?xml version="1.0" encoding="utf-8"?>
<!-- Generator: Adobe Illustrator 16.0.0, SVG Export Plug-In . SVG Version: 6.00 Build 0)  -->
<!DOCTYPE svg PUBLIC "-//W3C//DTD SVG 1.1//EN" "http://www.w3.org/Graphics/SVG/1.1/DTD/svg11.dtd">
<svg version="1.1" xmlns="http://www.w3.org/2000/svg" xmlns:xlink="http://www.w3.org/1999/xlink" x="0px" y="0px" width="512px"
	 height="512px" viewBox="0 0 512 512" enable-background="new 0 0 512 512" xml:space="preserve">
<g id="Layer_1">
	<g>
		<path d="M186.1,182.573c11.956,10.402,28.697,14.653,44.188,11.421c14.985-3.124,28.073-13.246,35.091-26.821
			c14.965-28.948-1.801-65.216-33.234-73.167c-21.869-5.532-45.458,4.472-56.822,23.936
			C163.046,138.96,167.715,166.667,186.1,182.573z"/>
		<path d="M472.069,351.133c-0.678-13.754-12.377-24.355-26.131-23.678l-139.863,6.887c-2.597-35.451,2.362-92.741,5.684-100.746
			c0.605-0.87,1.167-1.784,1.67-2.75L385.545,92.17c5.03-9.719,1.673-21.841-7.865-27.477c-9.88-5.838-22.621-2.561-28.461,7.319
			c0,0-67.075,108.155-100.725,122.032c-33.648,13.877-163.133,46.556-163.133,46.556c-10.48,3.094-16.908,13.889-14.391,24.666
			c2.61,11.176,13.785,18.119,24.961,15.509L195.801,256l2.201,98.382L56.92,401.614c-12.444,4.192-19.655,17.453-16.122,30.271
			c3.659,13.275,17.388,21.071,30.663,17.411l180.9-49.863c45.105-11.833,197.373-22.272,197.373-22.272
			C462.794,375.781,472.723,364.411,472.069,351.133z"/>
	</g>
</g>
<g id="Layer_2">
</g>
</svg>
