<?xml version="1.0" encoding="utf-8"?>
<!-- Generator: Adobe Illustrator 16.0.0, SVG Export Plug-In . SVG Version: 6.00 Build 0)  -->
<!DOCTYPE svg PUBLIC "-//W3C//DTD SVG 1.1//EN" "http://www.w3.org/Graphics/SVG/1.1/DTD/svg11.dtd">
<svg version="1.1" xmlns="http://www.w3.org/2000/svg" xmlns:xlink="http://www.w3.org/1999/xlink" x="0px" y="0px" width="512px"
	 height="512px" viewBox="0 0 512 512" enable-background="new 0 0 512 512" xml:space="preserve">
<g id="Layer_1">
	<g>
		<path d="M204.835,360.686c0.113,0,0.224-0.007,0.337-0.01l-1.517-29.454c-9.045-6.33-14.601-16.54-14.934-27.721
			c-8.846,5.426-14.748,15.186-14.748,26.322C173.973,346.868,187.79,360.686,204.835,360.686z"/>
		<path d="M208.25,327.552l4.032,78.343c0.35,6.359,5.452,11.622,11.957,11.956c6.962,0.359,12.895-4.992,13.254-11.956l4.38-85.126
			c3.948-4.739,6.324-10.834,6.324-17.485v-93.756c0-7.767-2.064-16.026-8.607-20.59l-5.743-114.022
			c-0.35-6.359-5.452-11.621-11.957-11.955c-6.961-0.359-12.896,4.994-13.254,11.955l-5.873,114.11
			c-5.675,5.01-9.259,12.335-9.259,20.502v93.756C193.505,313.84,199.492,322.993,208.25,327.552z"/>
		<path d="M437.637,39.621v21.545c-102.255,1.512-170.962,13.715-171.689,13.846l3.556,19.682
			c0.709-0.129,67.716-12.027,168.133-13.527v391.213h35.998V39.621H437.637z"/>
		<path d="M296.977,419.715c-21.605-0.916-42.879,0.682-64.046,5.121c-21.88,4.586-43.286,7.65-65.627,8.918
			c-9.928,0.027-21.295,0.691-31.747,0.357c-12.334-0.396-24.521-2.023-36.775-3.277c-20.389-2.086-40.283-1.172-60.417,2.52
			c21.046,4.463,41.539,9.201,62.08,15.684c21.903,6.916,43.942,10.938,66.916,11.918c21.549,0.926,42.737-0.676,63.858-5.08
			c21.709-4.535,43.152-8.049,65.374-8.877c21.975-0.82,44.455,0.502,66.79,2.721c21.006,2.145,41.643,1.703,62.402-2.357
			c-21.049-4.488-41.527-9.266-62.076-15.727C341.866,424.77,319.875,420.695,296.977,419.715z"/>
	</g>
</g>
<g id="Layer_2">
</g>
</svg>
