<?xml version="1.0" encoding="utf-8"?>
<!-- Generator: Adobe Illustrator 16.0.0, SVG Export Plug-In . SVG Version: 6.00 Build 0)  -->
<!DOCTYPE svg PUBLIC "-//W3C//DTD SVG 1.1//EN" "http://www.w3.org/Graphics/SVG/1.1/DTD/svg11.dtd">
<svg version="1.1" xmlns="http://www.w3.org/2000/svg" xmlns:xlink="http://www.w3.org/1999/xlink" x="0px" y="0px" width="512px"
	 height="512px" viewBox="0 0 512 512" enable-background="new 0 0 512 512" xml:space="preserve">
<g id="Layer_1">
	<g>
		<path d="M444.016,43.156c-8.678-7.779-22.02-7.05-29.799,1.628L288.451,185.112L219,129.298c-0.08-0.063-0.164-0.122-0.242-0.185
			l39.061-66.758c4.295-7.328,2.777-16.899-3.982-22.487c-7.502-6.201-18.609-5.147-24.813,2.354c0,0-60.244,69.7-63.27,76.529
			c-7.557,17.047-20.264,26.151-22.902,31.033c-2.641,4.883-44.77,82.806-44.77,82.806l-1.418,2.618
			c-0.557,1.046-1.031,2.15-1.412,3.313c-3.582,10.924,2.369,22.685,13.291,26.266l52.852,17.338
			c7.959,2.618,16.896-0.749,21.018-8.377c4.629-8.57,1.436-19.272-7.135-23.901l-25.693-13.879l16.973-26.069l71.061,57.106
			c1.988,1.597,4.066,2.999,6.209,4.228l9.426,184.905c0.582,10.645,9.121,19.451,20.008,20.007
			c11.643,0.595,21.561-8.363,22.154-20.007l9.988-195.865L446.818,71.521C453.262,62.866,452.207,50.496,444.016,43.156z"/>
		<path d="M160.891,113.765c7.141-27.116-9.051-54.892-36.17-62.031C97.6,44.59,69.828,60.787,62.686,87.904
			c-7.139,27.122,9.051,54.893,36.17,62.032C125.977,157.08,153.748,140.889,160.891,113.765z"/>
	</g>
</g>
<g id="Layer_2">
</g>
</svg>
