<?xml version="1.0" encoding="utf-8"?>
<!-- Generator: Adobe Illustrator 16.0.0, SVG Export Plug-In . SVG Version: 6.00 Build 0)  -->
<!DOCTYPE svg PUBLIC "-//W3C//DTD SVG 1.1//EN" "http://www.w3.org/Graphics/SVG/1.1/DTD/svg11.dtd">
<svg version="1.1" xmlns="http://www.w3.org/2000/svg" xmlns:xlink="http://www.w3.org/1999/xlink" x="0px" y="0px" width="512px"
	 height="512px" viewBox="0 0 512 512" enable-background="new 0 0 512 512" xml:space="preserve">
<g id="Layer_1">
	<g>
		<path d="M231.281,146.453c24.09,10.762,52.332-0.043,63.094-24.131c10.76-24.086-0.045-52.328-24.133-63.09
			c-24.084-10.758-52.33,0.043-63.092,24.133C196.393,107.449,207.199,135.695,231.281,146.453z"/>
		<path d="M438.604,419.836c-8.156,0.051-23.027,5.518-33.699,8.375c-10.738,2.875-19.205-10.455-19.205-10.455L284.137,262.73
			c3.379-5.186,3.719-12.053,0.277-17.688l-56.676-92.803c-4.887-9.619-13.23-17.521-24.109-21.662
			c-23.232-8.838-49.223,2.83-58.061,26.057l-31.422,82.584c-8.127,26.668,9.414,87.375,9.414,87.375l-58.092,80.813
			c-5.82,8.156-4.723,19.635,2.938,26.438c8.201,7.281,20.75,6.537,28.031-1.662l64.736-72.898l-28.785,70.256
			c-3.74,9.23-0.076,20.094,8.881,24.971c9.633,5.246,21.693,1.689,26.939-7.943l41.643-76.471c2.105-3.867,3-8.445,2.246-13.131
			l-0.436-2.711l-13.375-83.09l20.16-52.99l39.178,46.225c3.393,4.012,8.43,6.074,13.486,5.822l111.354,169.971
			c5.971,9.52,15.672,14.461,33.055,12.936C454.383,449.717,458.354,419.711,438.604,419.836z"/>
		<circle cx="431.082" cy="387.186" r="18.481"/>
	</g>
</g>
<g id="Layer_2">
</g>
</svg>
