<?xml version="1.0" encoding="utf-8"?>
<!-- Generator: Adobe Illustrator 16.0.0, SVG Export Plug-In . SVG Version: 6.00 Build 0)  -->
<!DOCTYPE svg PUBLIC "-//W3C//DTD SVG 1.1//EN" "http://www.w3.org/Graphics/SVG/1.1/DTD/svg11.dtd">
<svg version="1.1" xmlns="http://www.w3.org/2000/svg" xmlns:xlink="http://www.w3.org/1999/xlink" x="0px" y="0px" width="512px"
	 height="512px" viewBox="0 0 512 512" enable-background="new 0 0 512 512" xml:space="preserve">
<g id="Layer_1">
	<g>
		<g>
			<path d="M272.169,181.091h-48.848c-32.89,0-59.643,26.758-59.643,59.642v30.534c0,32.884,26.753,59.643,59.643,59.643h48.848
				c32.885,0,59.639-26.759,59.639-59.643v-30.534C331.808,207.849,305.054,181.091,272.169,181.091z M328.868,245.771
				c-0.152,4.531-3.932,8.073-8.472,7.927l-20.255-0.672l-19.181,26.413c-1.698,2.34-4.504,3.609-7.38,3.354
				c-2.88-0.265-5.409-2.021-6.658-4.625l-18.688-39.026l-13.4,60.471c-0.745,3.359-3.506,5.896-6.918,6.355
				c-0.366,0.05-0.731,0.071-1.092,0.071c-3.012,0-5.822-1.662-7.256-4.377l-21.148-40.134l-2.919,14.917
				c-0.87,4.44-5.177,7.342-9.626,6.475c-4.446-0.871-7.342-5.182-6.475-9.631l7.383-37.734c0.671-3.408,3.419-6.03,6.859-6.536
				c3.442-0.513,6.828,1.211,8.45,4.288l21.562,40.922l13.702-61.841c0.756-3.412,3.599-5.974,7.073-6.37
				c3.472-0.404,6.825,1.445,8.336,4.6l23.009,48.043l13.647-18.8c1.601-2.205,4.2-3.455,6.912-3.377l24.609,0.82
				C325.47,237.451,329.019,241.249,328.868,245.771z"/>
			<path d="M391.917,242.084h-8.63v-6.618C383.287,188.509,308.495,46,308.495,46h-32.86v62.509c0,15.4-12.487,27.891-27.89,27.891
				c-15.404,0-27.891-12.49-27.891-27.891V46h-32.864c0,0-74.792,142.509-74.792,189.466v41.068
				c0,46.956,74.792,189.466,74.792,189.466h32.864v-62.509c0-15.399,12.486-27.891,27.891-27.891
				c15.402,0,27.89,12.491,27.89,27.891V466h32.86c0,0,74.792-142.51,74.792-189.466v-6.618h8.63c4.355,0,7.885-3.53,7.885-7.885
				v-12.063C399.802,245.614,396.272,242.084,391.917,242.084z M360.469,276.534c0,44.044-35.828,79.868-79.868,79.868h-65.716
				c-44.041,0-79.869-35.824-79.869-79.868v-41.068c0-44.045,35.828-79.868,79.869-79.868h65.716
				c44.041,0,79.868,35.823,79.868,79.868V276.534z"/>
		</g>
		<path d="M247.743,124.654c9.021,0,16.333-7.313,16.333-16.332V46.264H231.41v62.059
			C231.41,117.342,238.723,124.654,247.743,124.654z"/>
		<path d="M247.743,387.234c-9.021,0-16.333,7.313-16.333,16.332v62.059h32.666v-62.059
			C264.076,394.547,256.764,387.234,247.743,387.234z"/>
	</g>
</g>
<g id="Layer_2">
</g>
</svg>
