<?xml version="1.0" encoding="utf-8"?>
<!-- Generator: Adobe Illustrator 16.0.0, SVG Export Plug-In . SVG Version: 6.00 Build 0)  -->
<!DOCTYPE svg PUBLIC "-//W3C//DTD SVG 1.1//EN" "http://www.w3.org/Graphics/SVG/1.1/DTD/svg11.dtd">
<svg version="1.1" xmlns="http://www.w3.org/2000/svg" xmlns:xlink="http://www.w3.org/1999/xlink" x="0px" y="0px" width="512px"
	 height="512px" viewBox="0 0 512 512" enable-background="new 0 0 512 512" xml:space="preserve">
<g id="Layer_1">
	<g>
		<path d="M213.407,357.721c-0.03,0.029-0.067,0.063-0.104,0.096l4.118,23.45l23.446,4.11c0.035-0.029,0.064-0.063,0.099-0.103
			l-4.476-23.077L213.407,357.721z"/>
		<path d="M421.048,177.637c-91.001-90.996-143.231-44.24-151.66-12.499c-4.029,15.169-3.643,21.474-3.643,21.474
			c-13.679-6.735-48.593-16.202-78.575,93.825l-64.485,79.39c14.452,24.943,31.029,46.754,50.223,65.952
			c19.196,19.189,41.013,35.77,65.949,50.222l79.388-64.483c25.762-11.971,67.64-16.711,94.414-43.492
			C467.549,313.131,503.417,260.004,421.048,177.637z M292.424,372.992c-5.412,5.409-14.182,5.409-19.592,0
			c-1.28-1.278-2.25-2.752-2.921-4.323l-16.925-3.28l3.277,16.923c1.569,0.682,3.044,1.65,4.323,2.929
			c5.412,5.409,5.412,14.18,0,19.592c-5.411,5.411-14.18,5.411-19.591,0c-1.22-1.22-2.147-2.616-2.817-4.103l-17.89-3.133
			l3.138,17.888c1.485,0.666,2.882,1.592,4.101,2.817c5.41,5.409,5.41,14.181-0.001,19.592c-5.411,5.411-14.181,5.409-19.591,0
			c-5.411-5.411-5.411-14.183,0-19.592c0.045-0.05,0.097-0.084,0.143-0.132l-4.116-23.445l-23.448-4.12
			c-0.043,0.049-0.083,0.098-0.128,0.146c-5.412,5.411-14.181,5.411-19.593-0.002c-5.41-5.409-5.411-14.181,0-19.59
			c5.412-5.411,14.181-5.411,19.593,0c1.22,1.216,2.149,2.614,2.816,4.098l17.895,3.142l-3.144-17.891
			c-1.483-0.667-2.878-1.601-4.098-2.818c-5.409-5.41-5.412-14.181,0-19.592c5.411-5.41,14.181-5.41,19.591,0
			c1.283,1.281,2.25,2.749,2.924,4.326l16.926,3.275l-3.282-16.921c-1.569-0.679-3.041-1.646-4.324-2.929
			c-5.409-5.412-5.408-14.182,0-19.592c5.41-5.412,14.181-5.41,19.591,0c5.4,5.401,5.409,14.144,0.034,19.558l4.473,23.078
			l23.081,4.477c5.414-5.38,14.158-5.36,19.555,0.03C297.833,358.81,297.834,367.58,292.424,372.992z"/>
		<path d="M150.847,302.93l-5.869-7.562l-22.614,6.435c-0.013,0.05-0.033,0.09-0.046,0.14l14.067,18.791L150.847,302.93z"/>
		<path d="M98.976,328.714c1.64,0.537,3.097,1.36,4.368,2.387l17.376-5.287l-10.885-14.54c-1.624,0.072-3.289-0.121-4.929-0.662
			c-7.271-2.383-11.234-10.205-8.852-17.478c2.383-7.273,10.207-11.237,17.479-8.852c1.719,0.563,3.252,1.444,4.561,2.536
			l16.579-4.723l-10.571-13.613c-1.703,0.108-3.457-0.087-5.177-0.653c-7.271-2.382-11.233-10.206-8.851-17.479
			c2.383-7.271,10.207-11.231,17.478-8.852c7.25,2.372,11.211,10.169,8.862,17.427l14.42,18.576l22.61-6.443
			c0.706-2.123,1.884-3.95,3.369-5.432c12.748-41.831,26.184-64.664,26.184-64.664s-13.867-37.052-56.108-20.553
			c50.016-23.697,13.685-61.604,13.685-61.604s43.011,32.745,84.565,50.609c2.049-0.306,4.12-0.476,6.216-0.476
			c0.892,0,1.78,0.028,2.668,0.086c0.496-2.266,1.096-4.756,1.82-7.485c5.794-21.813,25.602-45.086,56.508-50.058
			c-10.275-23.054-34.829-47.343-86.113-64.145c-110.695-36.268-141.886,19.739-166.06,93.5
			c-11.788,35.991,2.898,75.493,3.864,103.884l-21.659,99.954c24.16,15.718,48.8,27.687,74.597,36.139
			c0.871,0.289,1.746,0.557,2.62,0.835c-3.091-4.801-6.103-9.729-9.041-14.8l-4.843-8.358l12.752-15.701l-10.591,3.22
			c-0.021,0.058-0.029,0.122-0.05,0.182c-2.383,7.273-10.207,11.234-17.48,8.85c-7.27-2.382-11.233-10.204-8.85-17.476
			C83.878,330.291,91.705,326.327,98.976,328.714z"/>
	</g>
</g>
<g id="Layer_2">
</g>
</svg>
