<?xml version="1.0" encoding="utf-8"?>
<!-- Generator: Adobe Illustrator 16.0.0, SVG Export Plug-In . SVG Version: 6.00 Build 0)  -->
<!DOCTYPE svg PUBLIC "-//W3C//DTD SVG 1.1//EN" "http://www.w3.org/Graphics/SVG/1.1/DTD/svg11.dtd">
<svg version="1.1" xmlns="http://www.w3.org/2000/svg" xmlns:xlink="http://www.w3.org/1999/xlink" x="0px" y="0px" width="512px"
	 height="512px" viewBox="0 0 512 512" enable-background="new 0 0 512 512" xml:space="preserve">
<g id="Layer_1">
	<path d="M470.667,249.15v-86.622c0-5.987-4.854-10.84-10.841-10.84c-5.988,0-10.842,4.853-10.842,10.84v19.926L266.841,79.089
		v-7.248C266.841,65.852,261.988,61,256,61s-10.841,4.852-10.841,10.841v7.248L63.016,182.454v-19.926
		c0-5.987-4.854-10.84-10.841-10.84c-5.988,0-10.842,4.853-10.842,10.84v86.622c-0.005,0.132-0.026,0.261-0.026,0.392v75.153
		c0,3.717,1.997,7.146,5.229,8.98l204.368,115.979c1.58,0.895,3.339,1.345,5.097,1.345s3.517-0.45,5.097-1.345l204.368-115.979
		c3.232-1.835,5.229-5.264,5.229-8.98v-75.153C470.694,249.411,470.672,249.282,470.667,249.15z M63.016,217.603v-0.128
		l11.914-6.759l12.101,6.866l-12.026,6.824L63.016,217.603z M256,276.68c-5.988,0-10.841,4.853-10.841,10.841v9.113l-106.871-60.647
		L256,169.182l117.712,66.805l-106.871,60.647v-9.113C266.841,281.532,261.988,276.68,256,276.68z M266.841,127.844v-13.734
		l160.814,91.264l-12.1,6.865L266.841,127.844z M245.159,127.844L96.445,212.238l-12.1-6.865l160.814-91.264V127.844z
		 M128.873,241.328l116.286,65.99v13.652l-128.312-72.818L128.873,241.328z M266.841,307.318l116.286-65.99l12.026,6.824
		l-128.312,72.818V307.318z M424.97,217.582l12.101-6.866l11.914,6.759v0.128l-11.988,6.804L424.97,217.582z M448.984,193.142v0.127
		l-11.914,6.76l-170.229-96.604V89.775L448.984,193.142z M245.159,89.775v13.649L74.93,200.028l-11.914-6.76v-0.127L245.159,89.775z
		 M107.432,253.495l137.727,78.16v16.647L92.765,261.818L107.432,253.495z M266.841,348.303v-16.647l137.727-78.16l14.667,8.323
		L266.841,348.303z"/>
</g>
<g id="Layer_2">
</g>
</svg>
