<?xml version="1.0" encoding="utf-8"?>
<!-- Generator: Adobe Illustrator 16.0.0, SVG Export Plug-In . SVG Version: 6.00 Build 0)  -->
<!DOCTYPE svg PUBLIC "-//W3C//DTD SVG 1.1//EN" "http://www.w3.org/Graphics/SVG/1.1/DTD/svg11.dtd">
<svg version="1.1" xmlns="http://www.w3.org/2000/svg" xmlns:xlink="http://www.w3.org/1999/xlink" x="0px" y="0px" width="512px"
	 height="512px" viewBox="0 0 512 512" enable-background="new 0 0 512 512" xml:space="preserve">
<g id="Layer_1">
	<g>
		<path d="M434.749,245.835c0.071-0.072,0.145-0.146,0.215-0.218h0c16.003-16.389,29.498-32.625,28.386-53.322
			c-0.965-17.945-12.876-35.564-37.486-55.447c-0.107-0.086-0.214-0.17-0.323-0.254c-24.293-18.551-108.225-78.824-168.11-75.584
			c-22.977,1.244-58.462,35.723-72.652,50.49c-31.11,32.373-56.657,69.818-70.09,102.732C96.827,258,52.302,314.15,51.855,314.711
			c-5.163,6.479-4.097,15.916,2.382,21.08c2.762,2.201,6.062,3.27,9.339,3.27c4.409,0,8.779-1.936,11.74-5.652
			c0.551-0.691,4.65-5.857,10.679-13.99l132.933,77.781l-27.596,28.479c-5.765,5.949-5.616,15.445,0.333,21.211
			c2.914,2.822,6.677,4.227,10.437,4.227c3.917,0,7.832-1.525,10.773-4.561l73.856-76.217c11.036-0.689,35.775-2.543,62.372-6.578
			c67.931-10.311,85.641-25.25,93.053-35.592c5.646-7.877,7.313-17.221,4.693-26.307
			C437.773,270.374,434.92,246.416,434.749,245.835z M240.422,375.02l-137.003-80.164c6.039-8.91,12.43-18.805,18.508-29.061
			l142.462,84.49L240.422,375.02z M304.024,338.914L136.25,239.41c2.268-4.664,4.36-9.297,6.215-13.842
			c2.856-7,6.358-14.26,10.41-21.66l90.036,29.508l70.647,104.58C310.214,338.338,307.018,338.645,304.024,338.914z M349.57,333.32
			c-0.895,0.145-1.788,0.285-2.681,0.424l-57.482-85.09l79.117,25.928l-1.804,2.25c-5.183,6.463-4.145,15.904,2.318,21.086
			c6.462,5.182,15.903,4.145,21.086-2.318l10.688-13.328c0.029-0.037,0.057-0.072,0.086-0.107c2.502-3.18,5.064-6.211,7.656-9.152
			c1.849,8.854,4.787,20.92,9.469,37.16c0.008,0.029,0.016,0.055,0.021,0.078C417.264,311.611,408.644,323.771,349.57,333.32z
			 M406.814,231.41c-5.591,5.609-11.635,11.68-17.704,18.35l-219.942-72.08c9.503-13.721,20.523-27.438,32.577-40.443
			l224.261,73.496C421.096,217.082,414.214,223.988,406.814,231.41z M225.851,113.566c17.636-15.555,29.663-22.072,33.292-22.604
			c39.458-2.109,104.344,36.023,148.026,69.35c8.658,7.008,15.181,13.381,19.566,19.088L225.851,113.566z"/>
	</g>
</g>
<g id="Layer_2">
</g>
</svg>
