<?xml version="1.0" encoding="utf-8"?>
<!-- Generator: Adobe Illustrator 16.0.0, SVG Export Plug-In . SVG Version: 6.00 Build 0)  -->
<!DOCTYPE svg PUBLIC "-//W3C//DTD SVG 1.1//EN" "http://www.w3.org/Graphics/SVG/1.1/DTD/svg11.dtd">
<svg version="1.1" xmlns="http://www.w3.org/2000/svg" xmlns:xlink="http://www.w3.org/1999/xlink" x="0px" y="0px" width="512px"
	 height="512px" viewBox="0 0 512 512" enable-background="new 0 0 512 512" xml:space="preserve">
<g id="Layer_1">
	<path d="M343.562,177.459c-1.225-6.299-4.833-11.882-10.075-15.583c-6.71-4.738-13.996-8.813-21.704-12.179l-37.434-71.215h55.548
		c8.97,0,16.241-7.271,16.241-16.242c0-8.97-7.271-16.24-16.241-16.24H182.102c-8.97,0-16.241,7.271-16.241,16.24
		c0,8.972,7.271,16.242,16.241,16.242h55.548l-37.433,71.21c-7.708,3.369-14.997,7.445-21.709,12.186
		c-5.24,3.701-8.848,9.284-10.072,15.581c-16.613,85.525-16.613,168.679,0,254.205c1.224,6.297,4.833,11.878,10.073,15.58
		C202.48,464.172,240.686,466,256,466c15.313,0,53.518-1.828,77.488-18.756c5.241-3.702,8.85-9.283,10.074-15.58
		C360.178,346.138,360.178,262.984,343.562,177.459z M217.999,409.628c0.957,5.9-3.052,11.461-8.955,12.419
		c-0.586,0.096-1.172,0.143-1.748,0.143c-5.215,0-9.811-3.777-10.673-9.095c-0.855-5.261-20.691-129.848,0.183-213.341
		c1.451-5.802,7.327-9.331,13.131-7.877c5.802,1.447,9.329,7.326,7.879,13.131C198.03,284.146,217.797,408.381,217.999,409.628z
		 M255.996,138.247c-4.499,0-8.972,0.235-13.405,0.649L256,113.39l13.409,25.509C264.971,138.482,260.497,138.247,255.996,138.247z"
		/>
</g>
<g id="Layer_2">
</g>
</svg>
