<?xml version="1.0" encoding="utf-8"?>
<!-- Generator: Adobe Illustrator 16.0.0, SVG Export Plug-In . SVG Version: 6.00 Build 0)  -->
<!DOCTYPE svg PUBLIC "-//W3C//DTD SVG 1.1//EN" "http://www.w3.org/Graphics/SVG/1.1/DTD/svg11.dtd">
<svg version="1.1" xmlns="http://www.w3.org/2000/svg" xmlns:xlink="http://www.w3.org/1999/xlink" x="0px" y="0px" width="512px"
	 height="512px" viewBox="0 0 512 512" enable-background="new 0 0 512 512" xml:space="preserve">
<g id="Layer_1">
	<path d="M286.957,146.236c7.126-5.709,11.45-13.448,11.45-22.096c0-15.511-13.888-28.112-32.983-31.268V77.227h60.689
		c8.644,0,15.651-7.007,15.651-15.651s-7.008-15.651-15.651-15.651H185.887c-8.644,0-15.651,7.007-15.651,15.651
		s7.008,15.651,15.651,15.651h60.689v15.646c-19.096,3.155-32.983,15.757-32.983,31.268c0,8.647,4.324,16.387,11.45,22.096
		C186.594,187.379,126,262.804,126,329.558c0,81.928,40.871,124.779,96.359,136.519c-6.73-5.815-13.284-14.074-19.074-25.701
		c-12.825-25.754-19.329-63.039-19.329-110.817c0-65.256,26.557-137.352,45.411-180.315c5.111,3.079,11.215,5.275,17.951,6.295
		c-18.203,41.456-44.515,112.088-44.515,174.021c0,80.482,20.383,130.479,53.196,130.479s53.196-49.996,53.196-130.479
		c0-61.933-26.312-132.564-44.515-174.021c6.736-1.02,12.84-3.216,17.951-6.295c18.854,42.964,45.411,115.06,45.411,180.315
		c0,47.778-6.504,85.063-19.329,110.817c-5.79,11.627-12.344,19.886-19.075,25.701C345.129,454.337,386,411.485,386,329.558
		C386,262.804,325.406,187.379,286.957,146.236z M256.373,137.328h-0.746c-13.296-0.127-23.187-7.018-23.187-13.188
		c0-4.661,5.645-9.733,14.136-11.991v7.021h18.848v-7.021c8.491,2.258,14.136,7.33,14.136,11.991
		C279.56,130.311,269.669,137.201,256.373,137.328z"/>
</g>
<g id="Layer_2">
</g>
</svg>
