<?xml version="1.0" encoding="utf-8"?>
<!-- Generator: Adobe Illustrator 16.0.0, SVG Export Plug-In . SVG Version: 6.00 Build 0)  -->
<!DOCTYPE svg PUBLIC "-//W3C//DTD SVG 1.1//EN" "http://www.w3.org/Graphics/SVG/1.1/DTD/svg11.dtd">
<svg version="1.1" xmlns="http://www.w3.org/2000/svg" xmlns:xlink="http://www.w3.org/1999/xlink" x="0px" y="0px" width="512px"
	 height="512px" viewBox="0 0 512 512" enable-background="new 0 0 512 512" xml:space="preserve">
<g id="Layer_1">
	<g>
		<path d="M414.736,194.439c-9.26-30.963-24.047-68.785-53.213-85.385c-28.479-17.752-68.779-12.762-100.418-6.172
			c-60.076,12.512-119.551,31.584-177.871,50.551c-12.834,4.174-26.715,14.682-26.963,29.523
			c-0.246,14.807,15.314,22.66,28.434,21.943c33.426-1.822,66.469-9.023,99.77-12.445c15.549-1.598,55.201-5.826,87.143-3.941
			c12.908,0.672,30.289,2.354,49.965,6.318c40.414,8.139,76.176,23.18,105.279,44.07
			C423.139,223.957,419.125,209.117,414.736,194.439z"/>
		<path d="M454.914,374.936c-6.23-33.961-12.607-68.256-20.129-102.24c-32.695-31.092-73.34-46.721-105.447-54.563
			c18.828,27.434,36.492,70.455,43.082,86.328c12.836,30.916,22.227,63.406,36.527,93.672c5.613,11.879,19.926,21.828,32.83,14.564
			C454.715,405.418,457.352,388.209,454.914,374.936z"/>
	</g>
</g>
<g id="Layer_2">
</g>
</svg>
