<?xml version="1.0" encoding="utf-8"?>
<!-- Generator: Adobe Illustrator 16.0.0, SVG Export Plug-In . SVG Version: 6.00 Build 0)  -->
<!DOCTYPE svg PUBLIC "-//W3C//DTD SVG 1.1//EN" "http://www.w3.org/Graphics/SVG/1.1/DTD/svg11.dtd">
<svg version="1.1" xmlns="http://www.w3.org/2000/svg" xmlns:xlink="http://www.w3.org/1999/xlink" x="0px" y="0px" width="512px"
	 height="512px" viewBox="0 0 512 512" enable-background="new 0 0 512 512" xml:space="preserve">
<g id="Layer_1">
	<path d="M454.957,409.16c-11.471-30.146-17.3-71.682-22.938-111.853c-5.937-42.29-11.546-82.255-23.33-101.146
		c2.266-14.661,2.607-28.629,2.607-35.698c0-33.368-6.017-61.27-16.507-76.547c-3.906-5.693-9.788-9.569-16.556-10.913
		c-40.608-8.08-81.737-12.177-122.246-12.177c-40.511,0-81.633,4.097-122.219,12.176c-6.771,1.346-12.651,5.221-16.555,10.909
		c-10.493,15.277-16.512,43.18-16.512,76.552c0,7.069,0.342,21.037,2.608,35.698C91.525,215.054,85.917,255.02,79.98,297.311
		c-5.638,40.168-11.467,81.704-22.938,111.85c-2.949,7.754,0.551,16.475,8.043,20.035c30.671,14.583,72.23,21.978,123.526,21.978
		c14.104,0,28.646-0.578,43.222-1.721c8.283-0.648,14.675-7.56,14.675-15.869v-107.77c0-5.234,4.257-9.492,9.491-9.492
		c5.233,0,9.491,4.258,9.491,9.492v107.77c0,8.31,6.392,15.221,14.675,15.869c14.576,1.143,29.117,1.721,43.222,1.721
		c51.296,0,92.855-7.395,123.526-21.978C454.406,425.635,457.906,416.914,454.957,409.16z M357.26,184.262H154.741
		c-0.942-7.457-1.42-15.455-1.42-23.798c0-14.245,1.528-28.484,4.105-38.359c32.828-5.745,65.983-8.659,98.562-8.659
		c32.577,0,65.741,2.914,98.585,8.66c2.577,9.875,4.105,24.114,4.105,38.358C358.679,168.815,358.201,176.813,357.26,184.262z"/>
</g>
<g id="Layer_2">
</g>
</svg>
