<?xml version="1.0" encoding="utf-8"?>
<!-- Generator: Adobe Illustrator 16.0.0, SVG Export Plug-In . SVG Version: 6.00 Build 0)  -->
<!DOCTYPE svg PUBLIC "-//W3C//DTD SVG 1.1//EN" "http://www.w3.org/Graphics/SVG/1.1/DTD/svg11.dtd">
<svg version="1.1" xmlns="http://www.w3.org/2000/svg" xmlns:xlink="http://www.w3.org/1999/xlink" x="0px" y="0px" width="512px"
	 height="512px" viewBox="0 0 512 512" enable-background="new 0 0 512 512" xml:space="preserve">
<g id="Layer_1">
	<path d="M450.821,159.584C440.33,97.743,372.959,65.055,256,65.055S71.67,97.743,61.179,159.584
		c-10.946,64.492-4.468,152.213,18.732,253.685c4.925,21.542,18.67,32.553,42.022,33.666l37.651,0.011
		c2.623,0,7.646-0.865,11.802-6.646c1.069-1.489,2.037-3.262,2.898-5.236c9.558,1.573,20.108,2.849,31.361,3.799
		c0.195,0.37,0.42,0.727,0.685,1.056c1.243,1.543,3.117,2.439,5.1,2.439h89.138c0.01,0,0.016,0,0.026,0
		c2.513,0,4.694-1.421,5.792-3.497c10.825-0.916,21.014-2.126,30.278-3.623c0.746,1.622,1.578,3.115,2.517,4.416
		c3.38,4.703,8.08,7.293,13.234,7.293h37.439l0.211-0.011c23.352-1.113,37.098-12.124,42.022-33.666
		C455.289,311.797,461.767,224.076,450.821,159.584z M202.752,127.455h106.496c18.639,0,33.748,15.109,33.748,33.748
		s-15.109,33.748-33.748,33.748H202.752c-18.639,0-33.748-15.109-33.748-33.748S184.113,127.455,202.752,127.455z M379.268,331.587
		c0,14.889-7.781,26.923-20.807,32.194l-0.606,0.271c-0.786,0.389-19.326,9.682-24.708,25.687
		c-1.608,4.785-2.34,16.187-1.027,27.438c-8.353,1.313-17.984,2.477-28.885,3.369c-1.213-1.495-3.048-2.437-5.076-2.437h-84.316
		c-2.028,0-3.863,0.941-5.076,2.437c-11.293-0.923-21.213-2.144-29.769-3.511c1.622-11.212,1.45-22.557-0.146-27.297
		c-5.38-16.004-23.92-25.297-24.707-25.686l-0.604-0.271c-13.026-5.271-20.808-17.307-20.808-32.194v-38.782
		c0-9.308,3.783-18.415,10.379-24.993c6.662-6.64,15.508-10.292,24.912-10.292h175.953c9.405,0,18.25,3.652,24.913,10.293
		c6.595,6.576,10.378,15.684,10.378,24.992V331.587z"/>
</g>
<g id="Layer_2">
</g>
</svg>
