<?xml version="1.0" encoding="utf-8"?>
<!-- Generator: Adobe Illustrator 16.0.0, SVG Export Plug-In . SVG Version: 6.00 Build 0)  -->
<!DOCTYPE svg PUBLIC "-//W3C//DTD SVG 1.1//EN" "http://www.w3.org/Graphics/SVG/1.1/DTD/svg11.dtd">
<svg version="1.1" xmlns="http://www.w3.org/2000/svg" xmlns:xlink="http://www.w3.org/1999/xlink" x="0px" y="0px" width="512px"
	 height="512px" viewBox="0 0 512 512" enable-background="new 0 0 512 512" xml:space="preserve">
<g id="Layer_1">
	<path d="M436.355,356.229c-37.723-105.029-41.346-239.381-41.343-240.5c0.04-12.396-6.819-23.813-17.778-29.593
		c-19.971-10.512-42.48-15.829-66.886-15.829c-34.098,0-60.375,10.479-63.263,11.674c-13.37,5.532-21.636,19.079-20.421,33.498
		c4.698,56.578,12.795,142.981,13.198,164.086c-3.972,3.243-123.171,51.452-136.768,57.189
		c-20.053,8.461-36.995,34.11-30.819,60.749c2.128,9.174,9.11,26.04,32.097,35.904c13.005,5.573,29.652,8.284,50.863,8.284
		c12.687,0,27.288-0.984,43.43-2.962c29.338-3.576,55.395-5.383,77.444-5.383c39.587,0,68.464,7.284,83.784,7.284
		c37.387,0,58.209-9.457,71.322-28.099C438.879,401.649,445.991,383.04,436.355,356.229z M230.5,402.054
		c-10.771,0.863-22.695,2.051-35.872,3.646c-15.475,1.884-28.513,2.714-39.392,2.714c-70.679,0-51.063-34.284-37.508-41.773
		c23.886-13.49,50.019-18.107,72.847-26.562C207.338,352.365,237.076,378.121,230.5,402.054z M270.323,226.734
		c-2.862-42.705-10.511-114.006-10.511-114.006s22.074-9.143,50.536-9.143c16.021,0,34.109,2.898,51.385,12
		c0,0,3.395,63.242,11.452,119.491L270.323,226.734z"/>
</g>
<g id="Layer_2">
</g>
</svg>
