<?xml version="1.0" encoding="utf-8"?>
<!-- Generator: Adobe Illustrator 16.0.0, SVG Export Plug-In . SVG Version: 6.00 Build 0)  -->
<!DOCTYPE svg PUBLIC "-//W3C//DTD SVG 1.1//EN" "http://www.w3.org/Graphics/SVG/1.1/DTD/svg11.dtd">
<svg version="1.1" xmlns="http://www.w3.org/2000/svg" xmlns:xlink="http://www.w3.org/1999/xlink" x="0px" y="0px" width="512px"
	 height="512px" viewBox="0 0 512 512" enable-background="new 0 0 512 512" xml:space="preserve">
<g id="Layer_1">
	<path d="M449.259,310.342c-6.667-3.668-14.818-3.08-20.873,1.479c-24.956,18.795-88.644,17.447-131.909,11.5
		c0.569-1.376,1.129-2.744,1.736-4.105c23.542-51.891,77.544-84.015,134.36-79.947c3.434,0.24,6.792-1.088,9.131-3.622
		c2.332-2.531,3.389-5.993,2.879-9.387c-10.16-66.161-52.54-122.136-113.361-149.726c-98.936-44.891-215.95-0.928-260.84,98.02
		c-44.892,98.941-0.92,215.957,98.018,260.854c38.589,17.504,80.833,22.104,122.217,13.313c1.564-0.332,3.005-0.996,4.264-1.911
		c42.938,7.006,78.988,0.942,107.467-18.264c50.861-34.3,56.576-97.115,56.8-99.773
		C459.768,321.213,455.877,313.989,449.259,310.342z M380.826,396.629c-22.361,15.078-53.001,18.393-91.223,10.004
		c-3.505-15.051-4.434-30.533-2.769-45.812c24.902,3.678,79.672,9.63,123.869-0.647
		C404.755,373.006,395.397,386.803,380.826,396.629z"/>
</g>
<g id="Layer_2">
</g>
</svg>
