<?xml version="1.0" encoding="utf-8"?>
<!-- Generator: Adobe Illustrator 16.0.0, SVG Export Plug-In . SVG Version: 6.00 Build 0)  -->
<!DOCTYPE svg PUBLIC "-//W3C//DTD SVG 1.1//EN" "http://www.w3.org/Graphics/SVG/1.1/DTD/svg11.dtd">
<svg version="1.1" xmlns="http://www.w3.org/2000/svg" xmlns:xlink="http://www.w3.org/1999/xlink" x="0px" y="0px" width="512px"
	 height="512px" viewBox="0 0 512 512" enable-background="new 0 0 512 512" xml:space="preserve">
<g id="Layer_1">
	<path d="M460.174,201.756h-43.831c-16.889-52.475-54.968-95.709-106.078-118.893c-98.936-44.891-215.95-0.928-260.84,98.02
		c-44.892,98.941-0.92,220.957,98.019,265.854h225.063c50.861-34.299,65.461-108.977,65.685-111.635
		c0.617-7.559-3.273-14.783-9.892-18.43c-6.667-3.668-14.818-3.08-20.872,1.479c-24.956,18.795-88.644,17.447-131.909,11.5
		c0.569-1.377,1.129-2.744,1.736-4.105c23.542-51.891,67.586-80.291,138.008-80.291h44.911c11.046,0,20-8.955,20-20v-3.498
		C480.174,210.709,471.22,201.756,460.174,201.756z M176.546,273.801c-13.667,0-24.747-11.08-24.747-24.746
		c0-13.668,11.08-24.747,24.747-24.747s24.747,11.079,24.747,24.747C201.293,262.721,190.213,273.801,176.546,273.801z
		 M389.744,366.504c-5.948,12.832-15.306,26.629-29.877,36.455c-22.361,15.078-53.001,18.393-91.224,10.004
		c-3.505-15.051-4.434-30.533-2.769-45.813C290.777,370.828,345.547,376.781,389.744,366.504z"/>
</g>
<g id="Layer_2">
</g>
</svg>
