<?xml version="1.0" encoding="utf-8"?>
<!-- Generator: Adobe Illustrator 16.0.0, SVG Export Plug-In . SVG Version: 6.00 Build 0)  -->
<!DOCTYPE svg PUBLIC "-//W3C//DTD SVG 1.1//EN" "http://www.w3.org/Graphics/SVG/1.1/DTD/svg11.dtd">
<svg version="1.1" xmlns="http://www.w3.org/2000/svg" xmlns:xlink="http://www.w3.org/1999/xlink" x="0px" y="0px" width="512px"
	 height="512px" viewBox="0 0 512 512" enable-background="new 0 0 512 512" xml:space="preserve">
<g id="Layer_1">
	<g>
		
			<ellipse transform="matrix(0.5041 -0.8636 0.8636 0.5041 -152.2331 369.2456)" cx="245.423" cy="317.188" rx="19.067" ry="22.51"/>
		<path d="M68.962,292.201c0.026,0.102,0.055,0.201,0.081,0.305c24.51-0.865,48.705-15.035,112.073-84.717
			c33.652-37.004,72.148-56.338,114.424-57.465c60.632-1.561,110.213,35.379,127.881,50.479
			c12.722-8.15,22.282-17.615,24.445-29.842c1.997-11.291-2.688-22.688-13.925-33.873C376.304,79.715,314.069,67.672,272.01,67.672
			c-33.52,0-67.297,7.746-97.681,22.396c-29.813,14.377-55.671,35.021-74.775,59.699C66.954,191.881,56.089,242.465,68.962,292.201z
			 M331.19,114.602c0-7.732,6.268-14,14-14s14,6.268,14,14s-6.268,14-14,14S331.19,122.334,331.19,114.602z M273.69,105.602
			c0-7.732,6.268-14,14-14s14,6.268,14,14s-6.268,14-14,14S273.69,113.334,273.69,105.602z M217.423,114.602c0-7.732,6.268-14,14-14
			s14,6.268,14,14s-6.268,14-14,14S217.423,122.334,217.423,114.602z"/>
		<path d="M109.581,322.932c-9.126,4.338-18.065,7.15-27.37,8.578c16.933,39.678,42.012,68.936,74.887,87.219
			c35.742,19.877,72.364,22.568,96.597,24.35l1.775,0.131c10.026,0.742,19.606,1.119,28.474,1.119
			c28.164,0,50.585-3.676,67.593-11.131c10.312,2.523,19.383,3.906,26.834,4.633c-0.453,2.229,1.206,3.867,4.435,3.947
			c0,0,29.805,2.68,39.303-7.176c9.497-9.854,7.833-25.832-20.023-20.699c0,0-7.295,0.889-10.761,4.639
			c-4.014-0.064-9.594-0.371-16.427-1.279c2.643-2.787,4.998-5.787,7.05-9.014c23.951-37.662-1.419-91.844-19.944-131.404
			c-6.035-12.889-13.546-28.928-13.34-33.504c0.002-0.021,0.313-3.117,9.574-9.102c6.877-4.447,15.996-8.816,25.814-13.371
			c-18.636-13.211-49.777-30.594-84.616-30.594c-0.938,0-1.884,0.012-2.833,0.037c-30.956,0.824-59.854,15.76-85.891,44.389
			C165.625,284.277,135.38,310.664,109.581,322.932z M210.588,301.379c13.271-22.738,45.789-28.467,72.631-12.801
			s37.843,46.799,24.572,69.535c-13.271,22.738-45.789,28.467-72.631,12.801C208.318,355.248,197.318,324.115,210.588,301.379z"/>
	</g>
</g>
<g id="Layer_2">
</g>
</svg>
