<?xml version="1.0" encoding="utf-8"?>
<!-- Generator: Adobe Illustrator 16.0.0, SVG Export Plug-In . SVG Version: 6.00 Build 0)  -->
<!DOCTYPE svg PUBLIC "-//W3C//DTD SVG 1.1//EN" "http://www.w3.org/Graphics/SVG/1.1/DTD/svg11.dtd">
<svg version="1.1" xmlns="http://www.w3.org/2000/svg" xmlns:xlink="http://www.w3.org/1999/xlink" x="0px" y="0px" width="512px"
	 height="512px" viewBox="0 0 512 512" enable-background="new 0 0 512 512" xml:space="preserve">
<g id="Layer_1">
	<path d="M46.059,334.885c8.574,37.689,16.466,93.449,45.637,93.449c11.537,0,219.813,0.07,219.813,0.07
		c67.333-2.912,113.115-119.922,67.692-117.834c-66.171,3.043-96.596-63.055-28.884-63.209
		c95.264-0.219,139.169-74.447,122.056-74.457c-17.114-0.01-100.67-0.063-100.67-0.063s-40.42-63.914-85.066-85.998
		C258.801,73.078,35.923,99.889,36,228.766c0.009,17.395,0.249,33.764,1.498,49.207C54.187,298.193,81.9,328.287,117.934,355
		c7.085,5.254,8.568,15.258,3.315,22.344c-3.135,4.227-7.955,6.461-12.843,6.461c-3.307,0-6.643-1.023-9.501-3.145
		C78.647,365.643,60.923,349.742,46.059,334.885z M207.002,318.244c0.314-5.496,3.422-10.449,8.234-13.123
		c1.843-1.023,20.023-10.523,42.069-9.721c9.233,0.336,23.193,0.566,32.826,11.242c6.36,7.049,9.102,16.818,8.147,29.043
		c-1.087,13.924-11.281,23.275-25.358,23.275c-20.302,0-50.472-20.467-59.235-26.74C209.21,329.014,206.687,323.738,207.002,318.244
		z"/>
</g>
<g id="Layer_2">
</g>
</svg>
