<?xml version="1.0" encoding="utf-8"?>
<!-- Generator: Adobe Illustrator 16.0.0, SVG Export Plug-In . SVG Version: 6.00 Build 0)  -->
<!DOCTYPE svg PUBLIC "-//W3C//DTD SVG 1.1//EN" "http://www.w3.org/Graphics/SVG/1.1/DTD/svg11.dtd">
<svg version="1.1" xmlns="http://www.w3.org/2000/svg" xmlns:xlink="http://www.w3.org/1999/xlink" x="0px" y="0px" width="512px"
	 height="512px" viewBox="0 0 512 512" enable-background="new 0 0 512 512" xml:space="preserve">
<g id="Layer_1">
	<g>
		<path d="M428.083,256.385c-2.128-6.111-7.661-10.385-14.118-10.901c-1.504-0.122-3.018-0.223-4.526-0.341
			c0-0.254,0.018-0.511,0.018-0.771c0-22.955-18.671-41.628-41.627-41.628H201.816c-22.956,0-41.629,18.673-41.629,41.628
			c0,0.263,0.011,0.518,0.017,0.773c-1.506,0.116-3.018,0.217-4.527,0.339c-6.451,0.515-11.993,4.79-14.119,10.903
			c-12.773,36.73-15.816,71.463-9.295,106.187c1.289,6.874,6.823,12.164,13.751,13.146c30.295,4.284,58.202,7.786,85.323,10.706
			c0.583,0.068,1.171,0.101,1.757,0.101c7.305,0,13.818-4.903,15.746-12.096c3.931-14.647,8.843-31.07,15.02-50.192l1.832-5.661
			l19.141,0.008l19.118-0.008l1.825,5.658c6.174,19.08,11.088,35.495,15.029,50.191c2.081,7.769,9.513,12.862,17.506,11.997
			c27.088-2.914,54.998-6.418,85.319-10.704c6.926-0.981,12.46-6.273,13.749-13.146
			C443.908,327.825,440.865,293.092,428.083,256.385z M201.816,221.553h166.013c12.394,0,22.503,9.937,22.8,22.263
			c-35.262-2.293-70.742-3.478-105.783-3.478c-35.043,0-70.541,1.187-105.833,3.479
			C179.308,231.491,189.419,221.553,201.816,221.553z"/>
		<path d="M285.892,341.456c-11.266,0-20.402,9.131-20.402,20.396c0,26.42-9.329,30.532-14.349,32.736
			c-12.663,5.576-34.027,5.614-58.789,5.614c-0.174,0-0.349,0-0.521,0h-0.592c-28.834,0-49.484-6.043-61.382-17.955
			c-17.864-17.896-17.817-49.937-17.766-80.919l0.006-4.749V91.396C112.097,80.129,102.96,71,91.694,71
			c-11.264,0-20.396,9.129-20.396,20.396v205.183l-0.006,4.679c-0.059,35.623-0.131,79.948,29.691,109.813
			C121.096,431.211,150.618,441,191.238,441h0.59c0.19,0,0.379,0,0.561,0c29.35,0,54.711-0.054,75.192-9.071
			c12.883-5.672,22.693-14.509,29.169-26.277c6.422-11.656,9.537-25.986,9.537-43.8
			C306.287,350.587,297.157,341.456,285.892,341.456z"/>
	</g>
</g>
<g id="Layer_2">
</g>
</svg>
