<?xml version="1.0" encoding="utf-8"?>
<!-- Generator: Adobe Illustrator 16.0.0, SVG Export Plug-In . SVG Version: 6.00 Build 0)  -->
<!DOCTYPE svg PUBLIC "-//W3C//DTD SVG 1.1//EN" "http://www.w3.org/Graphics/SVG/1.1/DTD/svg11.dtd">
<svg version="1.1" xmlns="http://www.w3.org/2000/svg" xmlns:xlink="http://www.w3.org/1999/xlink" x="0px" y="0px" width="512px"
	 height="512px" viewBox="0 0 512 512" enable-background="new 0 0 512 512" xml:space="preserve">
<g id="Layer_1">
	<g>
		<path d="M224.104,60.273c-52.916-14.546-97.74,151.831-129.055,208.441C63.734,325.328,59.953,375.439,55.59,404.076
			c-3.346,21.947,52.588,40.344,59.008,42.165c6.418,1.821,63.49,15.987,72.357-4.894c11.326-26.662,34.426-71.293,37.508-135.916
			C227.545,240.812,276.773,75.685,224.104,60.273z M228.545,146.625c0,0-0.051,11.008-11.98,13.867
			c-0.742,3.516-1.459,7.182-2.178,11.105c-1.848,10.108-4.064,23.42-4.809,36.76c-0.559,10.006-1.041,21.625,0.311,32.889
			c1.385,10.364,2.543,21.636,1.656,33.828c-1.156,15.883-3.477,29.662-7.098,42.126c-3.563,12.265-9.133,25.206-16.561,38.466
			c-6.918,12.347-13.455,21.922-20.576,30.127c-0.172,0.201-0.361,0.467-0.568,0.752c-0.98,1.348-2.463,3.387-4.582,2.787
			c-0.189-0.055-0.375-0.129-0.545-0.219c-0.049-0.023-0.104-0.045-0.16-0.069c-1.682-0.681-1.854-1.729-1.701-2.49
			c0.152-0.753,0.316-1.503,0.479-2.253l0.18-0.816c1.158-5.363,2.551-10.666,3.873-15.64c2.988-11.218,6.348-22.518,9.596-33.445
			l1.684-5.677c1.982-6.691,4.186-13.418,6.314-19.926c2.092-6.387,4.256-12.988,6.197-19.526
			c3.48-11.698,5.297-22.779,5.559-33.882c0.07-2.936-0.088-5.954-0.24-8.872c-0.16-3.085-0.326-6.272-0.236-9.447
			c0.18-6.13,0.508-10.813,1.074-15.185c2.664-20.484,7.594-40.859,14.691-60.752c-3.578-0.148-7.801-0.832-12.797-2.25
			s-8.951-3.053-12.072-4.807c-4.408,20.656-10.912,40.584-19.402,59.416c-1.816,4.018-3.994,8.176-7.061,13.486
			c-1.59,2.749-3.408,5.374-5.164,7.915c-1.662,2.403-3.381,4.89-4.863,7.425c-5.607,9.584-9.881,19.969-13.063,31.752
			c-1.781,6.584-3.408,13.338-4.982,19.871c-1.604,6.656-3.264,13.539-5.09,20.273l-1.547,5.715
			c-2.975,11.006-6.053,22.387-9.4,33.501c-1.484,4.927-3.086,10.172-4.916,15.345l-0.277,0.788
			c-0.254,0.724-0.51,1.448-0.775,2.169c-0.27,0.728-0.967,1.529-2.754,1.226c-0.063-0.009-0.119-0.02-0.174-0.026
			c-0.191-0.012-0.389-0.045-0.578-0.1c-2.119-0.602-2.309-3.115-2.436-4.777c-0.025-0.352-0.047-0.677-0.09-0.938
			c-1.75-10.722-2.285-22.304-1.688-36.444c0.643-15.184,2.697-29.123,6.107-41.432c3.465-12.508,8.725-25.453,16.084-39.575
			c5.648-10.841,12.553-19.825,19.174-27.919c7.066-8.875,12.756-19.018,17.535-27.825c6.373-11.743,11.477-24.235,15.213-33.808
			c1.451-3.717,2.764-7.213,3.98-10.594c-8.65-8.699-2.914-18.093-2.914-18.093c16.984-36.204,31.029-52.266,42.861-49.062
			C229.588,85.853,233.105,106.896,228.545,146.625z"/>
		<path d="M456.41,404.076c-4.363-28.637-8.145-78.748-39.459-135.361c-31.314-56.61-76.139-222.987-129.055-208.441
			c-52.67,15.411-3.441,180.538-0.359,245.158c3.082,64.623,26.182,109.254,37.508,135.916c8.867,20.881,65.939,6.715,72.357,4.894
			C403.822,444.42,459.756,426.023,456.41,404.076z M410.518,367.116c-0.043,0.262-0.064,0.587-0.09,0.938
			c-0.127,1.662-0.316,4.176-2.436,4.777c-0.189,0.055-0.387,0.088-0.578,0.1c-0.055,0.007-0.111,0.018-0.174,0.026
			c-1.787,0.304-2.484-0.498-2.754-1.226c-0.266-0.721-0.521-1.445-0.775-2.169l-0.277-0.788c-1.83-5.173-3.432-10.418-4.916-15.345
			c-3.348-11.114-6.426-22.495-9.4-33.501l-1.547-5.715c-1.826-6.734-3.486-13.617-5.09-20.273
			c-1.574-6.533-3.201-13.287-4.982-19.871c-3.182-11.783-7.455-22.168-13.063-31.752c-1.482-2.535-3.201-5.021-4.863-7.425
			c-1.756-2.541-3.574-5.166-5.164-7.915c-3.066-5.311-5.244-9.469-7.061-13.486c-8.49-18.832-14.994-38.76-19.402-59.416
			c-3.121,1.754-7.076,3.389-12.072,4.807s-9.219,2.102-12.797,2.25c7.098,19.893,12.027,40.268,14.691,60.752
			c0.566,4.371,0.895,9.055,1.074,15.185c0.09,3.175-0.076,6.362-0.236,9.447c-0.152,2.918-0.311,5.937-0.24,8.872
			c0.262,11.103,2.078,22.184,5.559,33.882c1.941,6.538,4.105,13.14,6.197,19.526c2.129,6.508,4.332,13.234,6.314,19.926
			l1.684,5.677c3.248,10.928,6.607,22.228,9.596,33.445c1.322,4.974,2.715,10.276,3.873,15.64l0.18,0.816
			c0.162,0.75,0.326,1.5,0.479,2.253c0.152,0.762-0.02,1.81-1.701,2.49c-0.057,0.024-0.111,0.046-0.16,0.069
			c-0.17,0.09-0.355,0.164-0.545,0.219c-2.119,0.6-3.602-1.439-4.582-2.787c-0.207-0.285-0.396-0.551-0.568-0.752
			c-7.121-8.205-13.658-17.78-20.576-30.127c-7.428-13.26-12.998-26.201-16.561-38.466c-3.621-12.464-5.941-26.243-7.098-42.126
			c-0.887-12.192,0.271-23.464,1.656-33.828c1.352-11.264,0.869-22.883,0.311-32.889c-0.744-13.34-2.961-26.651-4.809-36.76
			c-0.719-3.924-1.436-7.59-2.178-11.105c-11.93-2.859-11.98-13.867-11.98-13.867c-4.561-39.729-1.043-60.772,10.709-64.26
			c11.832-3.204,25.877,12.857,42.861,49.062c0,0,5.736,9.394-2.914,18.093c1.217,3.381,2.529,6.877,3.98,10.594
			c3.736,9.572,8.84,22.064,15.213,33.808c4.779,8.808,10.469,18.95,17.535,27.825c6.621,8.094,13.525,17.078,19.174,27.919
			c7.359,14.122,12.619,27.067,16.084,39.575c3.41,12.309,5.465,26.248,6.107,41.432
			C412.803,344.813,412.268,356.395,410.518,367.116z"/>
	</g>
</g>
<g id="Layer_2">
</g>
</svg>
