<?xml version="1.0" encoding="utf-8"?>
<!-- Generator: Adobe Illustrator 16.0.0, SVG Export Plug-In . SVG Version: 6.00 Build 0)  -->
<!DOCTYPE svg PUBLIC "-//W3C//DTD SVG 1.1//EN" "http://www.w3.org/Graphics/SVG/1.1/DTD/svg11.dtd">
<svg version="1.1" xmlns="http://www.w3.org/2000/svg" xmlns:xlink="http://www.w3.org/1999/xlink" x="0px" y="0px" width="512px"
	 height="512px" viewBox="0 0 512 512" enable-background="new 0 0 512 512" xml:space="preserve">
<g id="Layer_1">
	<path d="M448.416,368.484c-4.658-18.467-18.387-37.156-47.824-45.158c-15.33-4.17-38.426-10.705-61.898-19.295
		c0,0-145.551-40.115-125.371-186.146l8.613-58.764c-0.113-5.711-9.582-8.17-27.234-9.23c-5.75,33.213-18.93,128.582,7.229,185.873
		c2.293,5.023,0.08,10.955-4.943,13.25c-1.346,0.613-2.758,0.904-4.148,0.904c-3.795,0.002-7.424-2.17-9.102-5.848
		c-28.053-61.441-15.645-157.523-9.268-194.842c-9.482-0.139-20.281-0.145-32.35-0.145c-51,0-65.787,16.35-71.73,23.006
		c-1.719,1.922-1.988,3.867-1.912,5.16c0.094,1.561,7.953,73.629,5.463,108.543c-0.932,12.975-4.848,97.355-9.848,111.27
		c-8.752,24.373,8.219,78.199,16.053,100.555v35.299H50.318c-8.283,0-15,6.717-15,15c0,8.285,6.717,15,15,15h376.725
		c27.371,0,49.639-22.268,49.639-49.637C476.682,393.557,465.117,376.486,448.416,368.484z M271.477,432.916H110.145v-25.568
		l161.332,0.311V432.916z M427.043,432.916H301.477v-25.258h144.375c0.533,1.781,0.83,3.666,0.83,5.621
		C446.682,424.107,437.871,432.916,427.043,432.916z"/>
</g>
<g id="Layer_2">
</g>
</svg>
