<?xml version="1.0" encoding="utf-8"?>
<!-- Generator: Adobe Illustrator 16.0.0, SVG Export Plug-In . SVG Version: 6.00 Build 0)  -->
<!DOCTYPE svg PUBLIC "-//W3C//DTD SVG 1.1//EN" "http://www.w3.org/Graphics/SVG/1.1/DTD/svg11.dtd">
<svg version="1.1" xmlns="http://www.w3.org/2000/svg" xmlns:xlink="http://www.w3.org/1999/xlink" x="0px" y="0px" width="512px"
	 height="512px" viewBox="0 0 512 512" enable-background="new 0 0 512 512" xml:space="preserve">
<g id="Layer_1">
	<path d="M405.672,350.168c-15.33-4.17-38.425-10.704-61.898-19.294l-1.784-0.652l-1.526,1.133
		c-5.845,4.339-10.438,8.894-13.657,13.533l-1.18,1.699l0.911,1.858c0.984,2.009,1.484,4.142,1.484,6.339
		c0,7.967-6.48,14.446-14.443,14.446s-14.439-6.479-14.439-14.446c0-5.693,3.37-10.874,8.585-13.191l1.102-0.489l0.569-1.062
		c2.491-4.631,5.928-9.199,10.212-13.58l3.569-3.651l-4.679-2.042c-7.997-3.488-15.659-7.166-22.778-10.932l-1.83-0.968
		l-1.736,1.128c-11.57,7.522-17.29,14.54-20.051,19.104l-1.182,1.951l1.299,1.876c1.68,2.427,2.568,5.266,2.568,8.206
		c0,7.968-6.48,14.448-14.445,14.448c-7.962,0-14.439-6.48-14.439-14.448c0-4.837,2.408-9.331,6.441-12.018l0.943-0.628l0.398-1.062
		c2.301-6.095,7.59-15.436,19.725-25.315l3.688-3.002l-3.947-2.653c-5.113-3.436-9.978-7.023-14.459-10.664l-1.771-1.438
		l-2.037,1.028c-17.486,8.827-26.093,17.656-30.234,23.508l-1.213,1.712l0.931,1.881c0.999,2.022,1.506,4.167,1.506,6.373
		c0,7.967-6.48,14.447-14.447,14.447c-7.96,0-14.438-6.48-14.438-14.447c0-5.688,3.363-10.862,8.566-13.184l1.096-0.489l0.57-1.056
		c5.92-10.989,17.104-21.451,32.346-30.262l3.743-2.165l-2.877-3.227c-4.92-5.523-9.272-11.326-12.936-17.249l-1.47-2.377
		l-2.649,0.891c-16.19,5.442-24.694,12.104-28.978,16.736l-1.177,1.271l0.289,1.708c0.152,0.904,0.228,1.708,0.228,2.453
		c0,7.961-6.479,14.44-14.445,14.44c-7.963,0-14.441-6.479-14.441-14.44c0-7.489,5.612-13.667,13.054-14.373l1.435-0.136
		l0.928-1.103c7.659-9.103,19.387-16.547,34.863-22.125l3.264-1.178l-1.129-3.283c-2.337-6.799-3.967-13.865-4.843-21.007
		l-0.388-3.159l-3.184,0.066c-17.807,0.381-28.326,4.294-34.018,7.512l-1.18,0.666l-0.428,1.285
		c-1.969,5.911-7.473,9.884-13.698,9.884c-7.963,0-14.442-6.477-14.442-14.439s6.479-14.444,14.442-14.444
		c1.897,0,3.75,0.368,5.503,1.089l1.511,0.624l1.452-0.753c10.607-5.502,24.27-8.469,40.612-8.816l3.876-0.061
		c0,0,14.652-96.266,14.533-102.193C226.818,76,216.182,76,210.467,76c-1.288,0-2.738,0.025-4.43,0.08
		c-12.445,0.394-42.102,19.32-46.367,22.085c-3.945,1.829-8.743,1.645-12.522-0.484c-3.448-3.099-24.016-21.113-35.604-20.456
		c-8.971,0.479-30.476,2.313-36.42,8.97c-1.719,1.922-1.988,3.868-1.911,5.161c0.093,1.561,9.102,157.604,6.611,192.517
		c-0.932,12.976-5.651,26.119-10.651,40.033c-11.776,32.792-23.954,66.7,4.436,110.487L74.648,436l80.029-0.063
		c7.495-0.006,11.025-5.985,13.863-10.792c2.805-4.747,5.827-9.261,8.563-8.063c37.473,15.722,67.482,18.808,106.53,18.808
		c32.581,0,128.18-0.131,147.014-0.159h0.72c15.398,0,22.524-12.304,24.057-23.815C458.416,389.502,444.122,360.62,405.672,350.168z
		"/>
</g>
<g id="Layer_2">
</g>
</svg>
