<?xml version="1.0" encoding="utf-8"?>
<!-- Generator: Adobe Illustrator 16.0.0, SVG Export Plug-In . SVG Version: 6.00 Build 0)  -->
<!DOCTYPE svg PUBLIC "-//W3C//DTD SVG 1.1//EN" "http://www.w3.org/Graphics/SVG/1.1/DTD/svg11.dtd">
<svg version="1.1" xmlns="http://www.w3.org/2000/svg" xmlns:xlink="http://www.w3.org/1999/xlink" x="0px" y="0px" width="512px"
	 height="512px" viewBox="0 0 512 512" enable-background="new 0 0 512 512" xml:space="preserve">
<g id="Layer_1">
	<path d="M321.024,61.615C299.952,54.572,278.086,51,256.038,51c-88.26,0-166.362,56.268-194.348,140.015
		C44.317,242.94,48.213,298.51,72.661,347.487c24.412,48.977,66.467,85.519,118.416,102.898
		C212.148,457.428,234.019,461,256.081,461h0.002c88.249,0,166.343-56.268,194.327-140.015
		C486.243,213.802,428.201,97.449,321.024,61.615z M378.646,143.291l2.212,0.078l1.459,1.664
		c9.15,10.425,17.012,22.002,23.367,34.408l3.62,7.067l-7.933,0.388c-86.125,4.202-131.316,41.341-150.589,63.104l-2.171,2.451
		l-3.136-0.938c-16.012-4.795-30.062-15.938-41.761-33.12l-2.063-3.03l2.202-2.932c12.216-16.265,60.128-69.336,163.773-69.336
		C371.25,143.095,374.958,143.161,378.646,143.291z M172.105,110.281c25.581-14.729,54.605-22.514,83.934-22.514
		c18.134,0,36.083,2.936,53.35,8.725c5.123,1.704,10.47,3.792,15.878,6.204l16.242,7.242l-17.604,2.513
		c-67.332,9.608-109.304,39.825-132.656,63.483l-5.885,5.961l-2.629-7.952c-7.294-22.067-11.177-44.01-13.15-58.531l-0.463-3.413
		L172.105,110.281z M99.742,194.239c7.457-18.939,18.13-36.159,31.723-51.182l6.825-7.542l2,9.973
		c9.183,45.775,34.578,124.804,101.493,139.766l2.606,0.583l1.016,2.472c6.491,15.807,10.992,31.924,13.377,47.905l0.954,6.396
		l-6.444-0.53c-16.96-1.398-43.074-7.388-71.164-27.979c-33.566-24.605-61.28-63.657-82.372-116.069l-0.762-1.892L99.742,194.239z
		 M260.096,381.436c-1.234,13.342-3.889,26.427-7.888,38.891l-1.207,3.762l-3.945-0.209c-15.265-0.811-30.183-3.628-44.341-8.372
		c-42.604-14.229-77.117-44.204-97.173-84.405c-9.103-18.25-14.771-37.737-16.848-57.921l-2.29-22.249l11.749,19.033
		c54.331,88.014,121.745,104.115,157.094,105.879l5.341,0.268L260.096,381.436z M344.623,397.253l-0.508,2.084l-1.839,1.102
		c-14.684,8.793-30.588,15.269-47.271,19.247l-8.049,1.92l1.867-8.061c7.295-31.503,11.098-80.975-12.217-137.75l-1.237-3.012
		l2.2-2.399c7.761-8.461,21.693-20.734,43.994-31.155l4.242-1.981l2.356,4.046C342.491,265.897,363.683,318.876,344.623,397.253z
		 M415.551,309.344c-4.783,14.354-11.668,28.198-20.462,41.146l-10.103,14.872l0.742-17.963
		c2.162-52.347-11.943-91.384-24.158-114.914l-3.131-6.033l6.661-1.352c15.728-3.189,32.889-4.849,51.008-4.929l4.248-0.019
		l0.806,4.172C426.631,252.624,424.691,282.022,415.551,309.344z"/>
</g>
<g id="Layer_2">
</g>
</svg>
