<?xml version="1.0" encoding="utf-8"?>
<!-- Generator: Adobe Illustrator 16.0.0, SVG Export Plug-In . SVG Version: 6.00 Build 0)  -->
<!DOCTYPE svg PUBLIC "-//W3C//DTD SVG 1.1//EN" "http://www.w3.org/Graphics/SVG/1.1/DTD/svg11.dtd">
<svg version="1.1" xmlns="http://www.w3.org/2000/svg" xmlns:xlink="http://www.w3.org/1999/xlink" x="0px" y="0px" width="512px"
	 height="512px" viewBox="0 0 512 512" enable-background="new 0 0 512 512" xml:space="preserve">
<g id="Layer_1">
	<g>
		<path d="M336,197.199c0-7.542-2.124-13.115-7.932-17.592c-1.628-1.257-3.058-2.797-4.454-4.318
			c-5.96-6.502-7.068-13.981-3.839-21.998c1.321-3.278,2.771-7.073,5.349-9.178c6.847-5.587,7.979-12.396,7.917-19.452H178.959
			c-0.063,7.056,1.07,13.865,7.917,19.452c2.579,2.104,4.028,5.899,5.349,9.178c3.229,8.017,2.121,15.496-3.839,21.998
			c-1.396,1.521-2.825,3.062-4.454,4.318c-5.808,4.477-7.932,10.05-7.932,17.592c-0.001,25.496,7.468,68.357,7.468,115.832
			c0,47.476-7.564,90.066-6.536,107.335c1.68,28.187,15.733,46.339,40.441,52.762c24.403,6.346,52.849,6.346,77.252,0
			c24.708-6.423,38.762-24.575,40.441-52.762c1.029-17.269-6.536-59.859-6.536-107.335C328.532,265.557,336.001,222.695,336,197.199
			z"/>
		<path d="M326.598,91.475c-1.313-12.173-10.115-32.055-20.786-32.055h-31.539V43.889c0-5.397-4.374-9.775-9.773-9.775h-17.002
			c-5.399,0-9.772,4.378-9.772,9.775V59.42h-31.539c-10.671,0-19.473,19.882-20.786,32.055c-3.154,2.969-5.136,7.168-5.136,11.845
			h151.469C331.734,98.643,329.752,94.443,326.598,91.475z"/>
	</g>
</g>
<g id="Layer_2">
</g>
</svg>
