<?xml version="1.0" encoding="utf-8"?>
<!-- Generator: Adobe Illustrator 16.0.0, SVG Export Plug-In . SVG Version: 6.00 Build 0)  -->
<!DOCTYPE svg PUBLIC "-//W3C//DTD SVG 1.1//EN" "http://www.w3.org/Graphics/SVG/1.1/DTD/svg11.dtd">
<svg version="1.1" xmlns="http://www.w3.org/2000/svg" xmlns:xlink="http://www.w3.org/1999/xlink" x="0px" y="0px" width="512px"
	 height="512px" viewBox="0 0 512 512" enable-background="new 0 0 512 512" xml:space="preserve">
<g id="Layer_1">
	<g>
		<path d="M145.739,114.244c5.958-22.568,22.044-90.188-26.11-90.48c-48.156,0.293-32.068,67.912-26.113,90.48H145.739z"/>
		<path d="M143.331,240.574c5.502-11.29,9.897-24.959,9.897-24.959l0.011-24.076l-1.423-5.414
			c-2.829-10.705-4.882-20.547-6.168-29.545H91.65c-1.969,6.025-4.59,13.396-7.244,19.066c-8.473,18.09-19.025,40.596-19.025,71.658
			c0,45.158,14.44,85.561,35.926,100.537c0.578,0.396,1.258,0.617,1.948,0.617h16.374h6.032
			c-1.513-10.166-2.313-20.861-2.313-31.887C123.348,283.238,134.423,259.58,143.331,240.574z"/>
		<path d="M144.03,127.602H95.226l-0.161,15.621h49.127l-0.021-1.629c-0.149-3.227-0.184-6.316-0.093-9.279L144.03,127.602z"/>
		<path d="M282.105,114.244c5.96-22.568,22.045-90.188-26.105-90.48c-48.149,0.293-32.065,67.912-26.105,90.48H282.105z"/>
		<path d="M231.438,143.223h49.122l-0.012-1.629c-0.161-3.227-0.194-6.316-0.101-9.279l-0.051-4.713h-48.793l-0.051,4.713
			c0.093,2.963,0.061,6.053-0.101,9.279L231.438,143.223z"/>
		<path d="M418.484,114.244c5.953-22.568,22.043-90.188-26.111-90.48c-48.156,0.293-32.072,67.912-26.113,90.48H418.484z"/>
		<path d="M427.594,175.646c-2.653-5.67-5.276-13.041-7.245-19.066h-53.997c-1.285,8.998-3.339,18.84-6.168,29.545l-1.425,5.414
			l-0.007,24.076c0,0,5.707,16.669,9.916,24.959c8.909,19.006,19.985,42.664,19.985,75.998c0,11.025-0.802,21.721-2.316,31.887
			h6.036h16.371c0.69,0,1.372-0.221,1.949-0.617c21.485-14.977,35.926-55.379,35.926-100.537
			C446.619,216.242,436.066,193.736,427.594,175.646z"/>
		<path d="M367.809,143.223h49.127l-0.161-15.621H367.97l-0.049,4.713c0.091,2.963,0.059,6.053-0.091,9.279L367.809,143.223z"/>
		<path d="M213.928,183.516c5.949-22.57,22.044-90.195-26.117-90.482c-48.148,0.287-32.066,67.912-26.104,90.482H213.928z"/>
		<path d="M211.52,311.09c2.002-4.279,4.352-10.479,6.786-17.918l3.072-10.225l0.05-20.895l-1.424-5.414
			c-2.957-11.203-5.068-21.449-6.345-30.791H159.84c-1.974,6.027-4.594,13.393-7.244,19.063
			c-8.474,18.096-19.025,40.6-19.025,71.662c0,45.16,14.44,85.563,35.924,100.539c0.573,0.396,1.254,0.613,1.949,0.613h16.367h5.848
			c-1.392-9.797-2.133-20.068-2.133-30.643C191.525,353.748,202.611,330.092,211.52,311.09z"/>
		<path d="M212.208,196.871h-48.794l-0.16,15.621h49.126l-0.001-0.09c-0.173-3.416-0.216-6.691-0.107-9.816L212.208,196.871z"/>
		<path d="M350.294,183.516c5.961-22.57,22.044-90.195-26.105-90.482c-48.16,0.287-32.065,67.912-26.116,90.482H350.294z"/>
		<path d="M352.16,225.848h-53.819c-1.276,9.342-3.388,19.588-6.345,30.791l-1.424,5.414l0.009,20.795l3.112,10.324
			c2.436,7.439,4.787,13.639,6.787,17.918c8.908,19.002,19.993,42.658,19.993,75.992c0,10.574-0.74,20.846-2.132,30.643h5.847
			h16.368c0.693,0,1.377-0.217,1.948-0.613c21.483-14.977,35.925-55.379,35.925-100.539c0-31.063-10.551-53.566-19.025-71.662
			C356.754,239.24,354.132,231.875,352.16,225.848z"/>
		<path d="M299.62,212.492h49.126l-0.16-15.621h-48.794l-0.063,5.715c0.108,3.125,0.063,6.4-0.106,9.816L299.62,212.492z"/>
		<path d="M282.105,254.027c5.96-22.576,22.045-90.189-26.105-90.486c-48.149,0.297-32.065,67.91-26.105,90.486H282.105z"/>
		<path d="M283.972,296.355h-55.943c-1.979,6.027-4.594,13.404-7.249,19.074c-8.48,18.086-19.02,40.6-19.02,71.652
			c0,45.16,14.438,85.572,35.925,100.545c0.566,0.4,1.247,0.609,1.948,0.609H256h16.366c0.702,0,1.383-0.209,1.949-0.609
			c21.485-14.973,35.925-55.385,35.925-100.545c0-31.053-10.54-53.566-19.018-71.652
			C288.564,309.76,285.951,302.383,283.972,296.355z"/>
		<polygon points="231.438,283.01 280.56,283.01 280.396,267.379 231.604,267.379 		"/>
	</g>
</g>
<g id="Layer_2">
</g>
</svg>
