<?xml version="1.0" encoding="utf-8"?>
<!-- Generator: Adobe Illustrator 16.0.0, SVG Export Plug-In . SVG Version: 6.00 Build 0)  -->
<!DOCTYPE svg PUBLIC "-//W3C//DTD SVG 1.1//EN" "http://www.w3.org/Graphics/SVG/1.1/DTD/svg11.dtd">
<svg version="1.1" xmlns="http://www.w3.org/2000/svg" xmlns:xlink="http://www.w3.org/1999/xlink" x="0px" y="0px" width="512px"
	 height="512px" viewBox="0 0 512 512" enable-background="new 0 0 512 512" xml:space="preserve">
<g id="Layer_1">
	<path d="M448.199,346.405c-7.888-7.889-17.25-13.709-27.566-17.213c-12.826-29.296-63.713-145.029-78.734-171.533
		c-20.874-36.828-49.914-65.078-70.602-82.292c-22.488-18.714-40.145-28.798-40.871-29.209c-6.844-3.895-14.91-4.487-21.58-1.583
		c-2.441,1.063-4.627,2.547-6.494,4.414c-3.604,3.604-5.734,8.284-6.17,13.523c-0.068,0.785-1.574,19.529,1.878,46.712
		c1.284,10.13,3.104,20.171,5.439,30.044c-5.497-2.801-11.085-5.452-16.737-7.939c-26.12-11.496-45.289-15.94-46.078-16.121
		c-7.803-1.796-15.656,0.327-21.008,5.68l-0.059,0.059c-5.31,5.395-7.342,13.299-5.432,21.163c0.5,2.031,5.187,20.573,16.713,45.935
		c2.332,5.134,4.807,10.217,7.4,15.23c-9.563-2.227-19.279-3.97-29.074-5.215c-27.125-3.444-45.912-1.943-46.691-1.879
		c-5.255,0.434-9.938,2.568-13.541,6.172c-1.86,1.859-3.344,4.039-4.416,6.491c-2.905,6.673-2.313,14.741,1.582,21.584
		c0.426,0.748,10.625,18.537,29.208,40.87c17.214,20.687,45.465,49.727,82.293,70.6c26.505,15.021,142.229,65.906,171.53,78.734
		c3.505,10.316,9.326,19.681,17.215,27.568c28.064,28.065,73.73,28.064,101.795,0C476.265,420.135,476.265,374.47,448.199,346.405z
		 M339.469,377.922l-45.46-21.912l62.001-62.001l21.912,45.461L339.469,377.922z"/>
</g>
<g id="Layer_2">
</g>
</svg>
