<?xml version="1.0" encoding="utf-8"?>
<!-- Generator: Adobe Illustrator 16.0.0, SVG Export Plug-In . SVG Version: 6.00 Build 0)  -->
<!DOCTYPE svg PUBLIC "-//W3C//DTD SVG 1.1//EN" "http://www.w3.org/Graphics/SVG/1.1/DTD/svg11.dtd">
<svg version="1.1" xmlns="http://www.w3.org/2000/svg" xmlns:xlink="http://www.w3.org/1999/xlink" x="0px" y="0px" width="512px"
	 height="512px" viewBox="0 0 512 512" enable-background="new 0 0 512 512" xml:space="preserve">
<g id="Layer_1">
	<path d="M256,74.755C155.9,74.755,74.754,155.901,74.754,256S155.9,437.245,256,437.245S437.246,356.099,437.246,256
		S356.1,74.755,256,74.755z M166.416,196.65c-1.35,3.896-3.076,9.792-3.655,15.746l-0.366,3.701
		c-0.663,6.635-1.348,13.49-1.463,20.352c-0.032,1.961-0.881,3.817-2.341,5.125s-3.397,1.948-5.351,1.767l-39.885-3.709
		c-0.01-0.001-0.02-0.002-0.029-0.003c-2.082-0.202-3.967-1.32-5.143-3.053c-1.182-1.74-1.522-3.918-0.93-5.936
		c5.609-19.105,12.768-35.059,21.883-48.773c0.152-0.225,1.01-1.496,2.051-3.035l0.656-0.975c2.03-3.007,6.012-3.977,9.196-2.245
		c6.411,3.485,16.696,9.421,22.257,12.647C166.209,189.951,167.518,193.467,166.416,196.65z M208.551,129.412l-0.297,0.246
		c-1.095,0.906-2.014,1.666-2.256,1.87c-7.29,6.161-13.92,13.627-19.707,22.199c-2.934,4.491-5.767,9.702-8.601,15.839
		c-0.83,1.8-2.382,3.166-4.271,3.762c-0.916,0.289-1.868,0.385-2.801,0.295c-0.998-0.098-1.974-0.406-2.856-0.922l-16.755-9.742
		c-1.773-1.03-3.008-2.781-3.383-4.795c-0.377-2.016,0.147-4.096,1.428-5.693c4.885-6.092,12.45-14.995,21.704-21.943
		c5.362-4.025,11.128-8.246,17.462-11.722c3.188-1.751,6.63-3.495,10.521-5.332c3.346-1.582,7.349-0.298,9.154,2.934l2.316,4.15
		C211.863,123.523,211.165,127.246,208.551,129.412z M342.891,269.192c-8.697,0-15.749-10.745-15.749-23.999
		s7.052-23.998,15.749-23.998s15.749,10.744,15.749,23.998S351.588,269.192,342.891,269.192z M385.459,309.828
		c-2.781,12.959-11.931,21.983-20.434,20.159c-8.506-1.825-13.145-13.811-10.364-26.77c2.781-12.959,11.931-21.984,20.434-20.159
		C383.599,284.884,388.239,296.868,385.459,309.828z M403.642,269.192c-8.697,0-15.749-10.745-15.749-23.999
		s7.052-23.998,15.749-23.998s15.749,10.744,15.749,23.998S412.339,269.192,403.642,269.192z"/>
</g>
<g id="Layer_2">
</g>
</svg>
