<?xml version="1.0" encoding="utf-8"?>
<!-- Generator: Adobe Illustrator 16.0.0, SVG Export Plug-In . SVG Version: 6.00 Build 0)  -->
<!DOCTYPE svg PUBLIC "-//W3C//DTD SVG 1.1//EN" "http://www.w3.org/Graphics/SVG/1.1/DTD/svg11.dtd">
<svg version="1.1" xmlns="http://www.w3.org/2000/svg" xmlns:xlink="http://www.w3.org/1999/xlink" x="0px" y="0px" width="512px"
	 height="512px" viewBox="0 0 512 512" enable-background="new 0 0 512 512" xml:space="preserve">
<g id="Layer_1">
	<path d="M459.371,193.722c-4.238-4.581-9.906-6.993-15.79-6.667c-9.93-26.973-25.886-51.922-46.299-72.338
		c-20.418-20.421-45.363-36.381-72.334-46.308c0.308-5.836-2.098-11.55-6.672-15.782C313.721,48.416,307.313,46,300.693,46h-89.386
		c-6.619,0-13.027,2.416-17.583,6.627c-4.579,4.235-6.985,9.958-6.671,15.794c-26.972,9.929-51.917,25.888-72.334,46.301
		c-20.414,20.417-36.373,45.362-46.303,72.331c-0.34-0.021-0.676-0.026-1.009-0.026c-5.534,0-10.782,2.379-14.778,6.695
		C48.416,198.277,46,204.688,46,211.308v89.385c0,6.621,2.416,13.03,6.629,17.586c3.996,4.316,9.244,6.695,14.778,6.695
		c0.328,0,0.662-0.007,0.997-0.025c9.928,26.968,25.889,51.909,46.309,72.327c20.419,20.41,45.366,36.366,72.34,46.296
		c-0.316,5.839,2.091,11.563,6.671,15.802c4.555,4.211,10.962,6.627,17.582,6.627h89.387c6.62,0,13.027-2.416,17.582-6.627
		c4.58-4.238,6.987-9.962,6.671-15.802c26.973-9.93,51.918-25.886,72.336-46.296c20.417-20.417,36.376-45.359,46.306-72.328
		c0.336,0.02,0.673,0.026,1.004,0.026c5.534,0,10.782-2.379,14.778-6.695c4.213-4.556,6.629-10.965,6.629-17.586V211.31
		C466,204.689,463.584,198.28,459.371,193.722z M435.022,218.944v74.112l-51.089-4.748v-64.616L435.022,218.944z M223.69,383.933
		h64.619l4.747,51.089h-74.111L223.69,383.933z M288.309,128.067H223.69l-4.745-51.089h74.111L288.309,128.067z M217.832,352.954
		c-5.523,0-10.735,1.602-14.99,4.56c-20.54-10.791-37.555-27.813-48.345-48.371c2.952-4.251,4.549-9.457,4.549-14.976v-76.334
		c0-5.524-1.6-10.735-4.558-14.988c10.792-20.545,27.811-37.562,48.36-48.354c4.251,2.955,9.462,4.555,14.983,4.555h76.338
		c5.518,0,10.729-1.6,14.98-4.554c20.552,10.793,37.568,27.809,48.358,48.358c-2.955,4.253-4.554,9.462-4.554,14.982v76.334
		c0,5.521,1.598,10.728,4.551,14.979c-10.79,20.551-27.807,37.568-48.358,48.36c-4.251-2.953-9.461-4.552-14.978-4.552H217.832z
		 M128.067,223.691v64.617l-51.09,4.748v-74.114L128.067,223.691z"/>
</g>
<g id="Layer_2">
</g>
</svg>
