<?xml version="1.0" encoding="utf-8"?>
<!-- Generator: Adobe Illustrator 16.0.0, SVG Export Plug-In . SVG Version: 6.00 Build 0)  -->
<!DOCTYPE svg PUBLIC "-//W3C//DTD SVG 1.1//EN" "http://www.w3.org/Graphics/SVG/1.1/DTD/svg11.dtd">
<svg version="1.1" xmlns="http://www.w3.org/2000/svg" xmlns:xlink="http://www.w3.org/1999/xlink" x="0px" y="0px" width="512px"
	 height="512px" viewBox="0 0 512 512" enable-background="new 0 0 512 512" xml:space="preserve">
<g id="Layer_1">
	<path d="M470.927,294.739c-0.798-11.209-8.086-21.066-18.568-25.115l-100.126-38.687c-12.576-21.035-31.25-38.73-54.336-51.421
		c-25.08-13.781-54.412-21.071-84.82-21.071c-9.547,0-19.233,0.735-28.779,2.175c-42.473,6.423-80.553,26.422-107.23,56.313
		c-28.194,31.602-40.497,70.333-34.642,109.073c1.292,8.552,5.839,16.095,12.8,21.224c5.609,4.138,12.256,6.324,19.224,6.324
		c1.617,0,3.248-0.123,4.837-0.367l189.852-28.699c27.538,14.22,57.489,21.431,89.095,21.43c12.707,0,25.657-1.209,38.498-3.585
		c34.1-6.313,56.885-18.706,59.375-20.096C465.906,316.74,471.725,305.947,470.927,294.739z"/>
</g>
<g id="Layer_2">
</g>
</svg>
