<?xml version="1.0" encoding="utf-8"?>
<!-- Generator: Adobe Illustrator 16.0.0, SVG Export Plug-In . SVG Version: 6.00 Build 0)  -->
<!DOCTYPE svg PUBLIC "-//W3C//DTD SVG 1.1//EN" "http://www.w3.org/Graphics/SVG/1.1/DTD/svg11.dtd">
<svg version="1.1" xmlns="http://www.w3.org/2000/svg" xmlns:xlink="http://www.w3.org/1999/xlink" x="0px" y="0px" width="512px"
	 height="512px" viewBox="0 0 512 512" enable-background="new 0 0 512 512" xml:space="preserve">
<g id="Layer_1">
	<path d="M433.795,197.771c-22.947-22.948-60.281-22.947-83.227,0.002L249.77,298.571c-10.018,10.02-26.32,10.02-36.34,0
		s-10.02-26.322-0.002-36.342l100.799-100.798c22.949-22.945,22.951-60.279,0.002-83.227c-22.943-22.94-60.277-22.939-83.227,0.001
		l-69.096,69.104c-8.6-1.35-17.697,1.281-24.32,7.903l-68.334,68.333c-11.002,11.004-11.002,28.851,0,39.854
		c11.008,11.004,28.852,11.003,39.854,0l68.336-68.334c6.621-6.621,9.252-15.718,7.902-24.318l69.105-69.096
		c10.018-10.021,26.32-10.021,36.342-0.001c10.018,10.019,10.016,26.321-0.002,36.339L189.982,238.792
		c-22.941,22.941-22.939,60.276,0,83.225c22.949,22.94,60.285,22.942,83.227,0.001l100.803-100.807
		c10.016-10.019,26.318-10.019,36.338-0.001c10.018,10.019,10.018,26.323-0.002,36.342l-69.096,69.105
		c-8.602-1.351-17.697,1.281-24.318,7.903L248.6,402.895c-11.004,11.002-11.004,28.848,0,39.853
		c11.004,11.004,28.85,11.004,39.854,0l68.334-68.334c6.621-6.622,9.252-15.719,7.902-24.318l69.105-69.097
		C456.734,258.049,456.734,220.715,433.795,197.771z"/>
</g>
<g id="Layer_2">
</g>
</svg>
