<?xml version="1.0" encoding="utf-8"?>
<!-- Generator: Adobe Illustrator 16.0.0, SVG Export Plug-In . SVG Version: 6.00 Build 0)  -->
<!DOCTYPE svg PUBLIC "-//W3C//DTD SVG 1.1//EN" "http://www.w3.org/Graphics/SVG/1.1/DTD/svg11.dtd">
<svg version="1.1" xmlns="http://www.w3.org/2000/svg" xmlns:xlink="http://www.w3.org/1999/xlink" x="0px" y="0px" width="512px"
	 height="512px" viewBox="0 0 512 512" enable-background="new 0 0 512 512" xml:space="preserve">
<g id="Layer_1">
	<path d="M440.354,74.01c-33.102-21.803-61.998-25.785-88.346-12.178c-22.352,11.549-40.119,33.934-59.92,63.994
		c-18.092,27.465-27.111,58.662-25.402,87.844c0.949,16.18,5.119,30.717,12.131,42.924c-2.314,7.205-4.629,14.412-6.947,21.619
		c-3.158,9.828-6.316,19.66-9.475,29.49l-5.793,18.02c-0.172,0.541-0.295,0.841-0.602,1.288c-0.309-0.447-0.43-0.747-0.602-1.288
		l-5.793-18.02c-3.158-9.83-6.316-19.662-9.475-29.49c-2.318-7.207-4.633-14.414-6.947-21.619
		c7.012-12.207,11.182-26.744,12.131-42.924c1.709-29.182-7.311-60.379-25.402-87.844c-19.801-30.061-37.568-52.445-59.92-63.994
		c-26.348-13.607-55.244-9.625-88.346,12.178c-33.102,21.805-48.17,46.783-46.068,76.361c1.783,25.096,15.336,50.258,35.139,80.316
		c18.092,27.467,43.191,48.07,70.678,58.021c15.24,5.516,30.244,7.424,44.225,5.801c0.977,0.85,1.953,1.697,2.924,2.547
		c7.457,6.498,14.908,12.992,22.365,19.488c7.23,6.301,14.465,12.604,21.695,18.904c2.203,1.92,4.406,3.842,6.611,5.762
		c0.518,0.451,1.035,0.9,1.553,1.352l0.248,0.219l6.33,10.469l-45.537,64.039c-0.652,0.994-1.299,1.992-1.943,2.992
		c-0.961,0.342-1.891,0.777-2.771,1.297c-1.887,1.107-3.537,2.604-4.832,4.367c-2.164,2.955-3.275,6.602-3.119,10.26
		c0.15,3.516,1.455,6.949,3.697,9.662c1.463,1.771,3.289,3.018,5.178,4.262l6.189,4.076c1.836,1.209,3.635,2.402,5.758,3.086
		c6.941,2.232,14.748-0.592,18.658-6.746c1.178-1.854,1.924-3.951,2.316-6.117c0.229-1.275,0.213-3.559,0.213-3.559
		s0.432-0.717,0.697-1.115c0.311-0.459,0.617-0.922,0.924-1.385c2.752-4.139,5.41-8.336,8.012-12.57l25.215-41.7l25.215,41.7
		c2.602,4.234,5.26,8.432,8.012,12.57c0.307,0.463,0.613,0.926,0.924,1.385c0.266,0.398,0.697,1.115,0.697,1.115
		s-0.016,2.283,0.213,3.559c0.393,2.166,1.139,4.264,2.316,6.117c3.91,6.154,11.717,8.979,18.658,6.746
		c2.123-0.684,3.922-1.877,5.758-3.086l6.189-4.076c1.889-1.244,3.715-2.49,5.178-4.262c2.242-2.713,3.547-6.146,3.697-9.662
		c0.156-3.658-0.955-7.305-3.119-10.26c-1.295-1.764-2.945-3.26-4.832-4.367c-0.881-0.52-1.811-0.955-2.771-1.297
		c-0.645-1-1.291-1.998-1.943-2.992l-45.539-64.039l6.332-10.469l0.248-0.219c0.518-0.451,1.035-0.9,1.553-1.352
		c2.205-1.92,4.408-3.842,6.611-5.762c7.23-6.301,14.465-12.604,21.695-18.904c7.457-6.496,14.908-12.99,22.365-19.488
		c0.971-0.85,1.947-1.697,2.924-2.547c13.98,1.623,28.984-0.285,44.225-5.801c27.486-9.951,52.586-30.555,70.678-58.021
		c19.803-30.059,33.355-55.221,35.139-80.316C488.523,120.793,473.455,95.814,440.354,74.01z M435.889,91.721
		c10.893,7.762,19.035,15.73,24.576,24.115l-1.824,2.771l-28.219-18.59L435.889,91.721z M291.348,227.863l18.588-28.217
		l28.217,18.586l-18.586,28.219L291.348,227.863z M312.951,256.496l-5.352,8.123c-7.428-6.098-13.145-13.924-17.141-22.938
		L312.951,256.496z M316.551,189.604l18.588-28.221l28.219,18.588l-18.588,28.219L316.551,189.604z M341.756,151.34l18.586-28.219
		l28.219,18.588l-18.588,28.219L341.756,151.34z M373.4,186.586l28.219,18.588l-18.588,28.219l-28.219-18.588L373.4,186.586z
		 M380.016,176.543l18.588-28.219l28.217,18.59l-18.586,28.217L380.016,176.543z M405.219,138.279l18.588-28.219l28.219,18.59
		l-18.588,28.217L405.219,138.279z M393.986,72.045c9.891,1.781,20.426,6.117,31.859,13.061l-5.467,8.297l-28.217-18.588
		L393.986,72.045z M385.547,84.859l28.217,18.588l-18.586,28.219l-28.221-18.588L385.547,84.859z M359.875,77.059
		c2.785-1.439,5.609-2.609,8.473-3.527l7.154,4.713l-18.588,28.217L337.99,93.996C344.934,86.904,352.207,81.02,359.875,77.059z
		 M329.826,103.021l20.471,13.484l-18.588,28.219l-21.979-14.479C316.141,120.697,322.813,111.35,329.826,103.021z M303.197,140.342
		l21.896,14.426l-18.586,28.219l-17.379-11.447C292.381,161.045,297.064,150.521,303.197,140.342z M285.965,183.855l13.928,9.174
		l-15.797,23.98C283.01,206.52,283.623,195.301,285.965,183.855z M227.904,217.01l-15.797-23.98l13.928-9.174
		C228.377,195.301,228.99,206.52,227.904,217.01z M113.396,148.324l18.588,28.219l-28.219,18.588L85.18,166.914L113.396,148.324z
		 M78.563,156.867L59.975,128.65l28.219-18.59l18.588,28.219L78.563,156.867z M123.439,141.709l28.219-18.588l18.586,28.219
		l-28.217,18.588L123.439,141.709z M138.6,186.586l18.588,28.219l-28.219,18.588l-18.588-28.219L138.6,186.586z M148.643,179.971
		l28.219-18.588l18.588,28.221l-28.219,18.586L148.643,179.971z M202.064,199.646l18.588,28.217l-28.219,18.588l-18.586-28.219
		L202.064,199.646z M221.541,241.682c-3.996,9.014-9.713,16.84-17.141,22.938l-5.352-8.123L221.541,241.682z M222.871,171.539
		l-17.379,11.447l-18.586-28.219l21.896-14.426C214.936,150.521,219.619,161.045,222.871,171.539z M202.27,130.246l-21.979,14.479
		l-18.588-28.219l20.471-13.484C189.188,111.35,195.859,120.697,202.27,130.246z M143.652,73.531
		c2.863,0.918,5.688,2.088,8.473,3.527c7.668,3.961,14.941,9.846,21.885,16.938l-18.924,12.465l-18.588-28.217L143.652,73.531z
		 M145.043,113.078l-28.221,18.588l-18.586-28.219l28.217-18.588L145.043,113.078z M118.014,72.045l1.824,2.77L91.621,93.402
		l-5.467-8.297C97.588,78.162,108.123,73.826,118.014,72.045z M76.111,91.721l5.467,8.297l-28.219,18.59l-1.824-2.771
		C57.076,107.451,65.219,99.482,76.111,91.721z M42.674,149.154c-0.223-3.127-0.184-6.182,0.104-9.178l7.154-4.711l18.586,28.217
		l-18.924,12.467C45.82,166.77,43.285,157.764,42.674,149.154z M54.664,187.014l20.471-13.484l18.588,28.217l-21.98,14.479
		C65.498,206.566,59.547,196.744,54.664,187.014z M78.439,226.215l21.898-14.426l18.588,28.219l-17.377,11.447
		C93.189,244.324,85.369,235.867,78.439,226.215z M111.613,259.227l13.928-9.174l15.795,23.979
		C131.271,270.889,121.203,265.895,111.613,259.227z M154.17,271.654l-18.586-28.219l28.219-18.588l18.588,28.219L154.17,271.654z
		 M166.516,277.926l22.492-14.814l5.352,8.123C185.822,275.652,176.377,277.814,166.516,277.926z M223.174,313.16
		c-7.344-6.402-14.689-12.803-22.033-19.203c-1.516-1.318-3.027-2.639-4.543-3.957l24.16-15.914
		c1.904,5.926,3.809,11.854,5.713,17.781c2.98,9.273,5.961,18.551,8.941,27.826c0.615,1.912,1.229,3.822,1.844,5.736
		C232.563,321.338,227.869,317.25,223.174,313.16z M310.859,293.957c-7.344,6.4-14.689,12.801-22.033,19.203
		c-4.695,4.09-9.389,8.178-14.082,12.27c0.615-1.914,1.229-3.824,1.844-5.736c2.98-9.275,5.961-18.553,8.941-27.826
		c1.904-5.928,3.809-11.855,5.713-17.781L315.402,290C313.887,291.318,312.375,292.639,310.859,293.957z M317.641,271.234
		l5.352-8.123l22.492,14.814C335.623,277.814,326.178,275.652,317.641,271.234z M329.609,253.066l18.588-28.219l28.219,18.588
		l-18.586,28.219L329.609,253.066z M370.664,274.031l15.795-23.979l13.928,9.174C390.797,265.895,380.729,270.889,370.664,274.031z
		 M410.451,251.455l-17.377-11.447l18.588-28.219l21.898,14.426C426.631,235.867,418.811,244.324,410.451,251.455z M440.258,216.225
		l-21.98-14.479l18.588-28.217l20.471,13.484C452.453,196.744,446.502,206.566,440.258,216.225z M469.326,149.154
		c-0.611,8.609-3.146,17.615-6.92,26.795l-18.924-12.467l18.586-28.217l7.154,4.711C469.51,142.973,469.549,146.027,469.326,149.154
		z"/>
</g>
<g id="Layer_2">
</g>
</svg>
