<?xml version="1.0" encoding="utf-8"?>
<!-- Generator: Adobe Illustrator 16.0.0, SVG Export Plug-In . SVG Version: 6.00 Build 0)  -->
<!DOCTYPE svg PUBLIC "-//W3C//DTD SVG 1.1//EN" "http://www.w3.org/Graphics/SVG/1.1/DTD/svg11.dtd">
<svg version="1.1" xmlns="http://www.w3.org/2000/svg" xmlns:xlink="http://www.w3.org/1999/xlink" x="0px" y="0px" width="512px"
	 height="512px" viewBox="0 0 512 512" enable-background="new 0 0 512 512" xml:space="preserve">
<g id="Layer_1">
	<g>
		<path d="M431.162,83.036c1.305-2.156,1.592-4.78,0.785-7.168c-3.537-10.429-15.24-19.204-20.107-22.493
			c-4.869-3.29-17.379-10.873-28.375-10.264c-2.518,0.143-4.846,1.388-6.359,3.404c-25.264,33.67-45.895,71.027-65.844,107.156
			c-8.969,16.238-34.863,62.9-55.262,101.826c-20.4-38.926-46.293-85.588-55.262-101.826
			c-19.951-36.129-40.58-73.486-65.844-107.156c-1.514-2.017-3.842-3.262-6.359-3.404c-10.996-0.609-23.506,6.974-28.375,10.264
			c-4.867,3.289-16.57,12.064-20.107,22.493c-0.807,2.388-0.521,5.012,0.785,7.168c21.807,36.005,48.768,69.087,74.842,101.079
			c13.135,16.118,53.729,66.275,83.576,100.957L138.703,433.905c-4.6,0.237-9.037,2.555-11.814,6.665
			c-4.695,6.949-2.867,16.388,4.082,21.082l6.904,4.667c6.951,4.695,16.389,2.866,21.084-4.081
			c2.777-4.111,3.271-9.093,1.773-13.448L256,307.781l95.268,141.009c-1.498,4.355-1.004,9.337,1.771,13.448
			c4.695,6.947,14.135,8.776,21.084,4.081l6.906-4.667c6.949-4.694,8.775-14.133,4.082-21.082c-2.777-4.11-7.217-6.428-11.814-6.665
			L272.744,285.072c29.846-34.682,70.441-84.839,83.576-100.957C382.393,152.123,409.354,119.041,431.162,83.036z"/>
		<path d="M256,468.923c24.814,0,45-20.186,45-45s-20.186-45-45-45s-45,20.186-45,45S231.186,468.923,256,468.923z M291.271,423.923
			c0,8.995-3.389,17.209-8.953,23.444c-5.563-6.233-8.949-14.449-8.949-23.444s3.387-17.208,8.951-23.444
			C287.883,406.717,291.271,414.928,291.271,423.923z M256,388.65c6.955,0,13.441,2.033,18.91,5.523
			c-7.01,7.937-11.27,18.354-11.27,29.749s4.262,21.813,11.27,29.749c-5.469,3.489-11.953,5.522-18.91,5.522
			s-13.443-2.034-18.914-5.524c7.01-7.935,11.273-18.352,11.273-29.747s-4.262-21.813-11.27-29.748
			C242.557,390.686,249.043,388.65,256,388.65z M229.682,400.475c5.563,6.234,8.949,14.453,8.949,23.448s-3.387,17.211-8.951,23.444
			c-5.563-6.236-8.951-14.449-8.951-23.444S224.117,406.711,229.682,400.475z"/>
	</g>
</g>
<g id="Layer_2">
</g>
</svg>
