<?xml version="1.0" encoding="utf-8"?>
<!-- Generator: Adobe Illustrator 16.0.0, SVG Export Plug-In . SVG Version: 6.00 Build 0)  -->
<!DOCTYPE svg PUBLIC "-//W3C//DTD SVG 1.1//EN" "http://www.w3.org/Graphics/SVG/1.1/DTD/svg11.dtd">
<svg version="1.1" xmlns="http://www.w3.org/2000/svg" xmlns:xlink="http://www.w3.org/1999/xlink" x="0px" y="0px" width="512px"
	 height="512px" viewBox="0 0 512 512" enable-background="new 0 0 512 512" xml:space="preserve">
<g id="Layer_1">
	<g>
		<path d="M481.189,289.086l-8.461-41.26c-0.931-4.543-5.049-7.719-9.678-7.467l-92.973,5.076
			c-11.063-0.242-23.01,0.934-35.319,3.457c-37.598,7.711-65.892,31.883-72.199,58.67H249.44
			c-6.308-26.787-34.602-50.959-72.199-58.67c-12.31-2.523-24.257-3.699-35.318-3.457l-92.974-5.076
			c-4.629-0.252-8.747,2.924-9.678,7.467l-8.461,41.26c-0.898,4.377,1.422,8.775,5.54,10.506l50.333,21.172
			c10.744,23.697,34.443,45.258,65.244,51.572c43.217,8.863,83.676-7.117,95.427-36.172h17.291
			c11.751,29.055,52.21,45.035,95.427,36.172c30.801-6.314,54.5-27.875,65.244-51.572l50.332-21.172
			C479.768,297.861,482.088,293.463,481.189,289.086z M81.357,283.34c-0.959,4.676-1.209,9.563-0.811,14.537l-29.858-12.559
			l5.296-25.828l37.402,2.041C87.367,267.223,83.18,274.463,81.357,283.34z M230.227,324.076
			c-2.777,13.543-15.327,21.047-22.559,24.318c-14.47,6.537-33.321,8.125-51.725,4.35c-17.055-3.498-32.945-13.621-43.597-27.771
			c-9.405-12.492-13.664-26.557-11.396-37.615c1.162-5.668,4.443-13.764,19.463-18.611c13.546-4.373,32.301-4.467,52.811-0.262
			c18.403,3.775,35.108,12.652,45.835,24.359C224.42,298.695,233.004,310.535,230.227,324.076z M399.652,324.973
			c-10.65,14.15-26.541,24.273-43.596,27.771c-18.404,3.775-37.255,2.188-51.725-4.35c-7.232-3.271-19.781-10.775-22.559-24.318
			c-2.777-13.541,5.806-25.381,11.168-31.232c10.727-11.707,27.432-20.584,45.835-24.359c20.511-4.205,39.265-4.111,52.81,0.262
			c15.021,4.848,18.301,12.943,19.464,18.611C413.316,298.416,409.059,312.48,399.652,324.973z M431.453,297.877
			c0.397-4.975,0.148-9.861-0.811-14.537c-1.822-8.877-6.01-16.117-12.029-21.809l37.401-2.041l5.297,25.828L431.453,297.877z"/>
		<path d="M90.872,212.764c1.852,1.577,4.16,2.389,6.488,2.389c1.634,0,3.274-0.399,4.774-1.215
			c15.478-8.415,33.037-12.863,50.78-12.863h206.167c17.743,0,35.305,4.448,50.784,12.864c1.499,0.814,3.141,1.214,4.774,1.214
			c0.018,0,0.035,0,0.054,0c5.509-0.017,9.968-4.487,9.968-10c0-1.409-0.291-2.751-0.817-3.967
			c-13.795-38.289-50.301-63.964-91.06-63.964H179.213c-40.986,0-77.671,25.964-91.286,64.607
			C86.551,205.732,87.723,210.079,90.872,212.764z"/>
	</g>
</g>
<g id="Layer_2">
</g>
</svg>
