<?xml version="1.0" encoding="utf-8"?>
<!-- Generator: Adobe Illustrator 16.0.0, SVG Export Plug-In . SVG Version: 6.00 Build 0)  -->
<!DOCTYPE svg PUBLIC "-//W3C//DTD SVG 1.1//EN" "http://www.w3.org/Graphics/SVG/1.1/DTD/svg11.dtd">
<svg version="1.1" xmlns="http://www.w3.org/2000/svg" xmlns:xlink="http://www.w3.org/1999/xlink" x="0px" y="0px" width="512px"
	 height="512px" viewBox="0 0 512 512" enable-background="new 0 0 512 512" xml:space="preserve">
<g id="Layer_1">
	<g>
		<path d="M242.771,204.072c21.855,7.307,45.489-4.482,52.794-26.334c7.306-21.854-4.485-45.486-26.336-52.793
			c-21.854-7.309-45.491,4.488-52.794,26.334C209.129,173.132,220.918,196.767,242.771,204.072z"/>
		<path d="M439.397,46.369h-29.528c-3.647,0-6.602,2.953-6.602,6.602v32.672h-45.4c-1.531-1.054-3.286-1.831-5.224-2.221
			c-3.915-0.789-7.771,0.125-10.82,2.221H170.166c-2.592-1.781-5.781-2.728-9.16-2.453c-2.561,0.208-4.899,1.094-6.873,2.453h-45.4
			V52.97c0-3.648-2.954-6.602-6.603-6.602H72.603c-3.649,0-6.603,2.953-6.603,6.602v83.643c0,3.646,2.953,6.602,6.603,6.602h29.527
			c3.648,0,6.603-2.955,6.603-6.602v-32.67h39.742l5.771,71.127c0.234,2.928,1.317,5.813,3.303,8.273l1.228,1.523l47.175,58.508
			c0.331,0.406,0.691,0.814,1.062,1.213v89.674l-36.313,108.973c-2.661,7.953,0.898,16.848,8.635,20.648
			c8.435,4.145,18.63,0.67,22.774-7.764l57.754-117.49h5.052l36.702,42.313l-12.108,63.328c-1.575,8.193,3.079,16.514,11.202,19.295
			c8.895,3.045,18.57-1.697,21.615-10.588l24.918-72.773c1.882-5.605,1.204-12.102-2.448-17.316l-1.54-2.205l-38.266-54.66v-61.432
			c0.363-0.391,0.721-0.791,1.062-1.215l47.175-58.508l1.225-1.518c1.847-2.285,3.05-5.131,3.306-8.279l5.771-71.127h39.742v32.67
			c0,3.646,2.954,6.602,6.602,6.602h29.528c3.648,0,6.603-2.955,6.603-6.602V52.97C446,49.322,443.046,46.369,439.397,46.369z
			 M322.104,163.363l-18.823,19.238c-7.473,19.555-26.199,32.543-47.27,32.543h-0.002c-5.449,0-10.854-0.881-16.06-2.621
			c-12.827-4.291-23.214-13.318-29.249-25.416c-0.739-1.482-1.401-2.988-1.989-4.514l-18.814-19.23l-11.953-59.42h156.113
			L322.104,163.363z"/>
	</g>
</g>
<g id="Layer_2">
</g>
</svg>
