<?xml version="1.0" encoding="utf-8"?>
<!-- Svg Vector Icons : http://www.onlinewebfonts.com/icon -->
<!DOCTYPE svg PUBLIC "-//W3C//DTD SVG 1.1//EN" "http://www.w3.org/Graphics/SVG/1.1/DTD/svg11.dtd">
<svg version="1.1" xmlns="http://www.w3.org/2000/svg" xmlns:xlink="http://www.w3.org/1999/xlink" x="0px" y="0px" viewBox="0 0 1000 1000" enable-background="new 0 0 1000 1000" xml:space="preserve">
<metadata> Svg Vector Icons : http://www.onlinewebfonts.com/icon </metadata>
<g><g transform="translate(0.000000,511.000000) scale(0.100000,-0.100000)"><path d="M4677,4991.1c-198.2-22.5-496.5-104.2-662-177.8C3265,4472.1,2893.1,3759,2919.7,2708.7l8.2-269.7l-63.3-20.4c-73.6-24.5-192.1-143-245.2-245.2c-53.1-100.1-63.3-486.3-20.4-694.7c71.5-339.2,296.3-655.9,578.3-817.3c122.6-69.5,126.7-75.6,192.1-241.1c183.9-474,590.5-895,1050.3-1085c235-98.1,412.8-130.8,653.8-118.5c529.2,28.6,1046.2,345.3,1373.1,845.9c102.2,155.3,230.9,427.1,230.9,486.3c0,14.3,61.3,61.3,136.9,104.2c296.3,171.6,519,482.2,590.5,825.5c42.9,208.4,32.7,594.6-20.4,694.7c-53.1,102.2-171.6,220.7-245.2,245.2l-63.3,20.4l8.2,259.5c22.5,801-173.7,1379.2-604.8,1785.8C6052.1,4886.9,5388,5072.8,4677,4991.1z"/><path d="M3050.5-736.3c-715.2-271.8-1168.8-490.4-1505.9-727.4c-241.1-169.6-568-494.5-707-702.9c-282-420.9-484.3-1036-533.3-1614.2c-30.6-353.5-38.8-345.3,412.7-500.6c1738.9-598.7,5666.1-684.5,7962.7-173.7c277.9,63.4,815.3,235,927.7,300.4c102.2,57.2,112.4,96,91.9,367.8c-45,559.9-251.3,1195.3-521,1597.9c-271.8,406.6-672.3,743.8-1213.7,1019.6c-398.4,204.3-1315.9,566-1346.5,531.3c-8.2-10.2-51.1-155.3-92-324.9c-159.4-651.8-367.8-1293.4-596.6-1847.2c-196.2-472-684.5-1399.6-833.7-1589.7c-104.2-128.7-153.3-87.9-396.4,335.1c-568,995.1-968.5,2022.9-1256.6,3234.5c-30.6,128.7-55.2,196.2-75.6,198.2C3350.8-630,3207.8-677,3050.5-736.3z"/><path d="M4564.6-1678.2c-14.3-38.8,102.2-621.2,132.8-655.9c18.4-22.5,91.9-28.6,304.5-28.6c212.5,0,286,6.1,304.4,28.6c30.6,34.7,147.1,617.1,132.8,655.9C5420.7-1633.3,4583-1633.3,4564.6-1678.2z"/><path d="M4711.7-2532.3c-14.3-16.3-59.3-169.6-96-341.2l-71.5-314.7l128.7-245.2c69.5-136.9,171.6-324.9,224.8-418.9l100.1-171.6l55.2,87.9c100.1,159.4,398.4,725.4,398.4,756c-2,81.7-143,641.6-167.5,655.9C5236.8-2493.5,4742.3-2501.7,4711.7-2532.3z"/></g></g>
</svg>